<svg version="1.1" xmlns="http://www.w3.org/2000/svg" width="512" height="512">
<path d="M0 0 C168.96 0 337.92 0 512 0 C512 168.96 512 337.92 512 512 C343.04 512 174.08 512 0 512 C0 343.04 0 174.08 0 0 Z " fill="#000000" transform="translate(0,0)"/>
<path d="M0 0 C4.20228058 1.02859169 7.66956134 2.54268517 11.484375 4.5390625 C12.18393311 4.8987915 12.88349121 5.25852051 13.60424805 5.62915039 C45.46076013 22.24691757 68.85875709 49.80973846 80.10546875 83.89501953 C85.51672524 101.26733754 91.05234634 125.56867081 82.2109375 142.609375 C76.31427308 151.81316338 68.36731373 157.87901931 57.734375 160.9140625 C54.62405055 161.31479289 51.55818398 161.32852784 48.42510986 161.30847168 C47.06773401 161.31760834 47.06773401 161.31760834 45.68293643 161.32692957 C42.66772641 161.3435036 39.65294129 161.3387917 36.63769531 161.33398438 C34.46881677 161.34132803 32.29994213 161.34991512 30.131073 161.35964966 C24.25072856 161.38184526 18.37052435 161.38479723 12.49014378 161.38290215 C7.57488158 161.38278233 2.65964897 161.39135109 -2.25560498 161.39967966 C-13.85662137 161.41890746 -25.4575658 161.42180012 -37.05859375 161.41503906 C-49.0101491 161.40840159 -60.96139557 161.43125253 -72.91288829 161.46835279 C-83.18748014 161.49908551 -93.46197282 161.51040584 -103.7366097 161.50651598 C-109.86713164 161.50445186 -115.99741328 161.50987575 -122.12789154 161.53440857 C-127.89661351 161.55673135 -133.66483481 161.55475144 -139.43355942 161.53448105 C-141.54420488 161.53108061 -143.65488441 161.53611814 -145.76548386 161.55046463 C-159.67553188 161.63845076 -171.86637033 161.09866383 -182.515625 150.9375 C-189.85761882 142.44831965 -192.63120322 134.0172713 -192.515625 122.9765625 C-192.50885742 122.04577881 -192.50208984 121.11499512 -192.49511719 120.15600586 C-191.97380385 84.95220137 -176.68125902 52.38640571 -151.76733398 27.88989258 C-141.69863165 18.29952939 -130.54548228 10.44353344 -118.265625 3.9140625 C-117.57726562 3.5428125 -116.88890625 3.1715625 -116.1796875 2.7890625 C-112.09494133 0.79128272 -109.62012498 0.8399174 -105.265625 1.9140625 C-102.93107172 3.10783646 -100.70544551 4.33515703 -98.453125 5.6640625 C-78.32190613 16.98152498 -52.99282149 19.35211735 -30.74609375 13.390625 C-22.22794448 10.77638844 -11.93279037 7.00000096 -5.1640625 1.07421875 C-3.265625 -0.0859375 -3.265625 -0.0859375 0 0 Z " fill="#FEFEFE" transform="translate(310.265625,260.0859375)"/>
<path d="M0 0 C2.46075434 2.1582944 4.74913677 4.39410954 7.01171875 6.7578125 C7.63175781 7.34691406 8.25179687 7.93601563 8.890625 8.54296875 C20.40355229 20.26194396 25.56844738 37.61085347 25.43188477 53.67138672 C24.76593648 71.44561025 16.54921798 88.6616745 3.7734375 100.90234375 C-12.00129754 114.40510386 -30.03752584 117.80316926 -50.27539062 116.984375 C-60.45218656 116.134477 -69.70555319 111.53712534 -77.98828125 105.7578125 C-79.12330078 105.00757813 -79.12330078 105.00757813 -80.28125 104.2421875 C-94.07269371 94.46236855 -102.68764333 78.23501209 -105.67919922 61.85595703 C-108.15862988 45.02481395 -103.96021003 27.9170495 -94.17578125 14.0078125 C-84.01012825 0.80763622 -69.75676047 -10.17862109 -52.90234375 -12.9609375 C-33.75003005 -14.80941818 -15.65022292 -11.74278164 0 0 Z " fill="#FDFDFD" transform="translate(294.98828125,132.2421875)"/>
<path d="M0 0 C0.33 0 0.66 0 1 0 C1 19.47 1 38.94 1 59 C-18.47 59 -37.94 59 -58 59 C-58 58.67 -58 58.34 -58 58 C-57.00742187 57.79246094 -56.01484375 57.58492188 -54.9921875 57.37109375 C-37.18653376 53.43169217 -21.86495484 45.5147872 -11.296875 30.12890625 C-5.40035461 20.4493773 -2.36762358 10.97463165 0 0 Z " fill="#FBFBFB" transform="translate(511,453)"/>
<path d="M0 0 C0.33 0 0.66 0 1 0 C1.27972656 1.23234375 1.55945313 2.4646875 1.84765625 3.734375 C6.24016084 22.2191867 14.57906785 37.44899382 31 48 C39.2376967 52.59211762 47.40069447 56.74467949 56.9375 57.625 C57.70964844 57.69976562 58.48179688 57.77453125 59.27734375 57.8515625 C59.84582031 57.90054688 60.41429687 57.94953125 61 58 C61 58.33 61 58.66 61 59 C40.87 59 20.74 59 0 59 C0 39.53 0 20.06 0 0 Z " fill="#FBFBFB" transform="translate(0,453)"/>
<path d="M0 0 C19.47 0 38.94 0 59 0 C59 20.13 59 40.26 59 61 C58.67 61 58.34 61 58 61 C57.938125 59.80375 57.87625 58.6075 57.8125 57.375 C55.85030076 40.06949277 45.89011474 25.13259005 32.6875 14.25 C22.62006335 6.87299901 12.00780271 3.59051581 0 1 C0 0.67 0 0.34 0 0 Z " fill="#FBFBFB" transform="translate(453,0)"/>
<path d="M0 0 C20.13 0 40.26 0 61 0 C61 0.33 61 0.66 61 1 C59.205625 1.0928125 59.205625 1.0928125 57.375 1.1875 C40.10739153 3.14540206 25.23389294 13.07207723 14.3125 26.1875 C7.72733668 35.06654723 2.39860144 45.84848438 1.375 56.9375 C1.30023438 57.70964844 1.22546875 58.48179688 1.1484375 59.27734375 C1.09945312 59.84582031 1.05046875 60.41429687 1 61 C0.67 61 0.34 61 0 61 C0 40.87 0 20.74 0 0 Z " fill="#FCFCFC" transform="translate(0,0)"/>
<path d="M0 0 C0.969375 0.144375 1.93875 0.28875 2.9375 0.4375 C7.28052169 1.06047442 11.63765234 1.53507859 16 2 C16 2.33 16 2.66 16 3 C13.70839681 3.02692484 11.41670454 3.04636124 9.125 3.0625 C7.84882812 3.07410156 6.57265625 3.08570313 5.2578125 3.09765625 C2 3 2 3 0 2 C0 1.34 0 0.68 0 0 Z " fill="#DDDDDD" transform="translate(45,509)"/>
<path d="M0 0 C1.28132813 0.00902344 2.56265625 0.01804688 3.8828125 0.02734375 C4.87023438 0.03894531 5.85765625 0.05054688 6.875 0.0625 C6.875 0.3925 6.875 0.7225 6.875 1.0625 C5.98748047 1.15337891 5.98748047 1.15337891 5.08203125 1.24609375 C-0.02388532 1.78574221 -0.02388532 1.78574221 -5.0625 2.75 C-5.743125 2.853125 -6.42375 2.95625 -7.125 3.0625 C-7.785 2.4025 -8.445 1.7425 -9.125 1.0625 C-6.12186252 -0.43906874 -3.33432478 -0.03031204 0 0 Z " fill="#DBDBDB" transform="translate(54.125,-0.0625)"/>
<path d="M0 0 C1.95803507 -0.05389087 3.91648909 -0.09274217 5.875 -0.125 C7.51082031 -0.15980469 7.51082031 -0.15980469 9.1796875 -0.1953125 C12 0 12 0 14 2 C9.04653013 3.59789351 4.86717585 2.28306814 0 1 C0 0.67 0 0.34 0 0 Z " fill="#E3E3E3" transform="translate(453,0)"/>
<path d="M0 0 C0.33 0.99 0.66 1.98 1 3 C-3.29 3 -7.58 3 -12 3 C-12 2.67 -12 2.34 -12 2 C-10.56342755 1.66269158 -9.12569907 1.33030409 -7.6875 1 C-6.88699219 0.814375 -6.08648437 0.62875 -5.26171875 0.4375 C-3 0 -3 0 0 0 Z " fill="#E3E3E3" transform="translate(465,509)"/>
<path d="M0 0 C0.66 0.33 1.32 0.66 2 1 C1.360625 1.5775 0.72125 2.155 0.0625 2.75 C-1.98223868 4.98062401 -2.58205199 6.07436391 -3 9 C-4.32 8.34 -5.64 7.68 -7 7 C-4.69 4.69 -2.38 2.38 0 0 Z " fill="#0F0F0F" transform="translate(25,14)"/>
</svg>
