<?xml version="1.0" encoding="UTF-8"?>
<svg version="1.1" xmlns="http://www.w3.org/2000/svg" width="400" height="400">
<path d="M0 0 C132 0 264 0 400 0 C400 132 400 264 400 400 C268 400 136 400 0 400 C0 268 0 136 0 0 Z " fill="#E9DCD0" transform="translate(0,0)"/>
<path d="M0 0 C1.60128862 -0.00898245 3.20257646 -0.01810455 4.80386353 -0.02735901 C8.15083851 -0.04378842 11.49771417 -0.05153826 14.84472656 -0.05444336 C19.11045305 -0.05982668 23.37523246 -0.09752992 27.64069176 -0.14318752 C30.94549892 -0.17308502 34.25008118 -0.18016962 37.55501175 -0.18116951 C39.12654593 -0.18534522 40.69808245 -0.19767175 42.26948166 -0.21868706 C51.4090987 -0.3312159 58.74356477 0.13142744 66.6015625 5.37109375 C67.5296875 5.96921875 68.4578125 6.56734375 69.4140625 7.18359375 C76.46825857 14.23778982 77.84783399 20.84243776 77.85253906 30.57958984 C77.72872294 38.31809743 76.18990702 44.78274923 70.6015625 50.37109375 C64.91957445 55.32614338 58.60199239 58.16054481 51.0390625 58.55859375 C49.8325 58.46578125 49.8325 58.46578125 48.6015625 58.37109375 C48.51519531 57.79101562 48.42882812 57.2109375 48.33984375 56.61328125 C47.29208946 50.78815187 45.96535817 47.43735789 41.6015625 43.37109375 C37.24919405 41.28952623 33.388571 40.94368228 28.6015625 41.37109375 C24.95186902 42.84500843 22.1737738 44.37018056 19.6015625 47.37109375 C17.42671619 46.36134368 15.61750446 45.38426025 13.76171875 43.8515625 C10.04010223 41.30094286 6.02331808 41.26208283 1.6015625 41.37109375 C-2.20316496 42.17663151 -4.83671979 43.85492072 -7.7109375 46.49609375 C-9.94468062 50.30173018 -10.68306689 54.05063176 -11.3984375 58.37109375 C-18.82874985 59.01720787 -24.85398869 56.54609643 -31.1484375 52.68359375 C-39.02891457 44.58421454 -40.67486023 37.41456219 -40.71972656 26.40112305 C-40.62423211 20.7675953 -39.71516609 16.88552989 -36.3984375 12.37109375 C-35.8209375 11.48421875 -35.2434375 10.59734375 -34.6484375 9.68359375 C-24.96089888 -0.27304316 -13.03691961 0.03794296 0 0 Z " fill="#412207" transform="translate(181.3984375,185.62890625)"/>
<path d="M0 0 C4.63634894 3.25408342 8.29024605 6.46844312 10 12 C10.85544604 18.5991552 11.00885269 24.30174665 7.375 30.0625 C3.90617773 34.53178638 0.41126099 37.19624634 -5 39 C-12.20165014 39.6896245 -18.44300016 39.94511146 -24.41796875 35.4921875 C-26.81456183 33.23169724 -28.43484421 30.88951837 -30 28 C-30.4125 27.2575 -30.825 26.515 -31.25 25.75 C-33.04107293 19.18273259 -32.79981997 12.79309987 -29.40234375 6.8203125 C-21.95877538 -2.84181246 -10.75682712 -5.86736025 0 0 Z " fill="#412309" transform="translate(99,159)"/>
<path d="M0 0 C4.56932896 3.18861353 7.5868303 7.37377215 9.33984375 12.6328125 C10.32325188 20.28934719 8.82377219 26.32623983 4.33984375 32.6328125 C-1.46031446 38.16644265 -6.93628323 38.94210479 -14.65234375 38.83984375 C-20.49292069 38.43783001 -24.03728022 36.5931188 -27.97265625 32.1953125 C-32.5733116 26.56108527 -33.16073111 22.13366403 -33.0390625 14.8984375 C-32.32360558 8.7322315 -29.20071374 4.84595998 -24.72265625 0.7578125 C-16.40355973 -5.01462182 -8.6285335 -4.65329234 0 0 Z " fill="#412308" transform="translate(323.66015625,159.3671875)"/>
<path d="M0 0 C1.640625 1.37890625 1.640625 1.37890625 4.015625 3.81640625 C6.23217127 2.78729548 8.12431677 1.734064 10.078125 0.25390625 C13.89075718 -2.57482085 17.4133025 -2.49041525 22.015625 -2.18359375 C27.88978872 -0.36057742 30.51896423 1.98278694 34.015625 6.81640625 C35.015625 8.81640625 35.015625 8.81640625 35.015625 15.81640625 C15.215625 15.81640625 -4.584375 15.81640625 -24.984375 15.81640625 C-24.984375 7.68127111 -24.984375 7.68127111 -20.984375 2.81640625 C-15.20412632 -2.53032378 -7.14476917 -4.26154539 0 0 Z " fill="#E69283" transform="translate(194.984375,228.18359375)"/>
<path d="M0 0 C3.6578218 2.03993908 5.66946174 3.50419262 8 7 C8.25760279 9.69452521 8.08900053 12.28548375 8 15 C7.34 15 6.68 15 6 15 C5.9175 15.61875 5.835 16.2375 5.75 16.875 C5 19 5 19 3.4375 20.25 C-0.07379648 21.33039892 -3.39199219 21.59417589 -7 21 C-10.44312714 18.8755173 -11.71617547 17.85147359 -13 14 C-13.6914329 6.85519333 -13.6914329 6.85519333 -10.625 3.0625 C-6.82632518 0.07782692 -4.84227641 -0.4656035 0 0 Z " fill="#EA905F" transform="translate(48,186)"/>
<path d="M0 0 C3.51738539 1.02095083 5.4213045 2.96473571 7.96484375 5.5703125 C9.49699263 8.63461026 9.19422923 11.1868767 8.96484375 14.5703125 C7.7252812 17.35932823 6.68033621 19.01381837 4.27734375 20.8828125 C0.79582316 21.91785916 -2.48078695 22.28259682 -6.03515625 21.5703125 C-9.88450945 18.45806949 -11.80013154 16.2826354 -12.47265625 11.3828125 C-11.96533774 6.96189409 -10.90399289 5.06298852 -7.87890625 1.90234375 C-5.2168748 -0.02086118 -3.23209906 -0.28536767 0 0 Z " fill="#EC905B" transform="translate(356.03515625,185.4296875)"/>
<path d="M0 0 C1.0686731 -0.00043808 1.0686731 -0.00043808 2.15893555 -0.00088501 C4.51273802 0.00050782 6.86622356 0.01606659 9.2199707 0.03173828 C10.85235928 0.03546858 12.4847501 0.03831547 14.11714172 0.04031372 C18.41291489 0.04794884 22.70855274 0.06759626 27.00427246 0.08972168 C31.38800221 0.11018273 35.77175383 0.11931599 40.15551758 0.12939453 C48.75649112 0.15084229 57.3573547 0.18497674 65.95825195 0.22705078 C65.62825195 1.87705078 65.29825195 3.52705078 64.95825195 5.22705078 C63.62491862 4.56038411 62.29158529 3.89371745 60.95825195 3.22705078 C58.83408195 3.13530044 56.70695741 3.10954384 54.58081055 3.11352539 C53.92702927 3.11337936 53.27324799 3.11323334 52.59965515 3.11308289 C50.43529968 3.11378043 48.27102992 3.12156538 46.10668945 3.12939453 C44.60739184 3.13125928 43.10809361 3.13268291 41.60879517 3.13368225 C37.65993573 3.13750299 33.71111299 3.1473295 29.76226807 3.15838623 C25.73385108 3.16860987 21.70542817 3.17318192 17.67700195 3.17822266 C9.7707351 3.18895216 1.86449809 3.20602328 -6.04174805 3.22705078 C-6.37174805 3.88705078 -6.70174805 4.54705078 -7.04174805 5.22705078 C-8.03174805 4.23705078 -9.02174805 3.24705078 -10.04174805 2.22705078 C-6.32014058 -0.25402086 -4.44428372 -0.01529874 0 0 Z " fill="#4D3420" transform="translate(172.041748046875,185.77294921875)"/>
<path d="M0 0 C3.51738539 1.02095083 5.4213045 2.96473571 7.96484375 5.5703125 C9.49699263 8.63461026 9.19422923 11.1868767 8.96484375 14.5703125 C7.7252812 17.35932823 6.68033621 19.01381837 4.27734375 20.8828125 C0.79582316 21.91785916 -2.48078695 22.28259682 -6.03515625 21.5703125 C-9.88450945 18.45806949 -11.80013154 16.2826354 -12.47265625 11.3828125 C-11.96533774 6.96189409 -10.90399289 5.06298852 -7.87890625 1.90234375 C-5.2168748 -0.02086118 -3.23209906 -0.28536767 0 0 Z M-3.03515625 1.5703125 C-3.69515625 2.8903125 -4.35515625 4.2103125 -5.03515625 5.5703125 C-5.69515625 5.5703125 -6.35515625 5.5703125 -7.03515625 5.5703125 C-7.03515625 9.8603125 -7.03515625 14.1503125 -7.03515625 18.5703125 C-5.28203125 18.6321875 -3.52890625 18.6940625 -1.72265625 18.7578125 C-0.73652344 18.79261719 0.24960937 18.82742187 1.265625 18.86328125 C3.95576108 18.78480615 3.95576108 18.78480615 5.7890625 17.33203125 C8.00977294 14.00465447 7.68092613 10.39164932 6.96484375 6.5703125 C4.9630438 3.40046989 4.9630438 3.40046989 1.96484375 1.5703125 C-0.74679403 1.15044304 -0.74679403 1.15044304 -3.03515625 1.5703125 Z " fill="#E0976C" transform="translate(356.03515625,185.4296875)"/>
<path d="M0 0 C2.1953125 1.515625 2.1953125 1.515625 4 3 C2.86111328 2.93039063 2.86111328 2.93039063 1.69921875 2.859375 C0.70535156 2.82328125 -0.28851563 2.7871875 -1.3125 2.75 C-2.79169922 2.68039063 -2.79169922 2.68039063 -4.30078125 2.609375 C-7.09213857 2.74447073 -7.09213857 2.74447073 -8.82421875 4.765625 C-10.64685702 8.22924325 -10.81236502 11.18813338 -10 15 C-8.12804555 17.69788858 -8.12804555 17.69788858 -5 19 C-2.23847356 19.30626911 0.20534076 19.18946842 3 19 C1 21 1 21 -2.8125 21.375 C-6.06703154 21.29807471 -7.03344999 20.97936065 -9.9375 19.1875 C-13.11468935 15.81775372 -13.39296319 12.56350271 -13.359375 8.00390625 C-12.75048815 4.60870025 -10.61319515 3.05322476 -8 1 C-5.19084526 -0.40457737 -3.11189466 -0.24895157 0 0 Z " fill="#DA9C77" transform="translate(48,186)"/>
<path d="M0 0 C4 4 4 4 4.390625 6.140625 C4.26041667 8.09375 4.13020833 10.046875 4 12 C3.34 12 2.68 12 2 12 C1.67 13.32 1.34 14.64 1 16 C0.01 15.67 -0.98 15.34 -2 15 C-2 14.34 -2 13.68 -2 13 C-1.34 13 -0.68 13 0 13 C0 8.71 0 4.42 0 0 Z " fill="#E2986B" transform="translate(52,189)"/>
<path d="M0 0 C-0.33 0.66 -0.66 1.32 -1 2 C-0.34 2 0.32 2 1 2 C1 3.32 1 4.64 1 6 C1.66 6.33 2.32 6.66 3 7 C1.375 7.75 1.375 7.75 -1 8 C-4.25 6.0625 -4.25 6.0625 -7 4 C-6.67 2.68 -6.34 1.36 -6 0 C-2.25 -1.125 -2.25 -1.125 0 0 Z " fill="#462811" transform="translate(158,234)"/>
<path d="M0 0 C0 0.66 0 1.32 0 2 C-0.66 2 -1.32 2 -2 2 C-2 2.66 -2 3.32 -2 4 C-2.66 4 -3.32 4 -4 4 C-3.67 5.65 -3.34 7.3 -3 9 C-5.31 9.33 -7.62 9.66 -10 10 C-10.33 10.99 -10.66 11.98 -11 13 C-11.33 12.34 -11.66 11.68 -12 11 C-5.34883721 0 -5.34883721 0 0 0 Z " fill="#462C17" transform="translate(304,158)"/>
<path d="M0 0 C0.66 0.33 1.32 0.66 2 1 C1.01 2.0209375 1.01 2.0209375 0 3.0625 C-2.49365936 6.72506219 -2.46677129 8.64346798 -2 13 C-1.24267038 15.81571431 -1.24267038 15.81571431 0 18 C0.66 18.33 1.32 18.66 2 19 C0.02 18.67 -1.96 18.34 -4 18 C-5.17033635 12.92854249 -5.32629144 8.04782562 -4 3 C-1.9375 0.9375 -1.9375 0.9375 0 0 Z " fill="#F6D5BB" transform="translate(347,187)"/>
<path d="M0 0 C0.99 0.66 1.98 1.32 3 2 C5.0492094 2.45139459 5.0492094 2.45139459 7.1875 2.625 C8.445625 2.74875 9.70375 2.8725 11 3 C10.01 3.495 10.01 3.495 9 4 C9 4.66 9 5.32 9 6 C5.75 6.8125 5.75 6.8125 2 7 C-0.4375 4.5625 -0.4375 4.5625 -2 2 C-1.34 1.34 -0.68 0.68 0 0 Z " fill="#F28F54" transform="translate(40,197)"/>
<path d="M0 0 C2.16874252 0.50603992 3.99967627 0.99983813 6 2 C5.979375 2.7425 5.95875 3.485 5.9375 4.25 C5.85897542 6.91883497 5.85897542 6.91883497 6.6875 9 C7 11 7 11 5.6875 13.75 C5.130625 14.4925 4.57375 15.235 4 16 C3.34 16 2.68 16 2 16 C2 16.66 2 17.32 2 18 C1.01 17.67 0.02 17.34 -1 17 C-0.34 17 0.32 17 1 17 C3.00441422 12.86589566 3.40848636 9.57504719 3 5 C1.63002843 2.12853006 1.63002843 2.12853006 0 0 Z " fill="#F5D1BA" transform="translate(361,188)"/>
<path d="M0 0 C2.375 0.25 2.375 0.25 5 1 C7.10477314 4.12483384 7.29735342 6.85158721 7.3125 10.5625 C7.32925781 11.51253906 7.34601562 12.46257812 7.36328125 13.44140625 C6.94916641 16.35802152 6.27810098 17.2147863 4 19 C3.01 18.67 2.02 18.34 1 18 C1.66 18 2.32 18 3 18 C3.33 16.68 3.66 15.36 4 14 C4.66 14 5.32 14 6 14 C5.1341519 7.20962619 5.1341519 7.20962619 1.875 1.375 C1.25625 0.92125 0.6375 0.4675 0 0 Z " fill="#F6D2B8" transform="translate(50,187)"/>
<path d="M0 0 C-1.31224548 3.93673644 -2.91910327 6.22719294 -6 9 C-6.66 8.34 -7.32 7.68 -8 7 C-7.9375 4.5 -7.9375 4.5 -7 2 C-4.54236535 0.67665827 -2.79402354 0 0 0 Z " fill="#4B2E16" transform="translate(257,227)"/>
<path d="M0 0 C0.66 0.33 1.32 0.66 2 1 C2 1.99 2 2.98 2 4 C1.34 4 0.68 4 0 4 C-0.33 4.99 -0.66 5.98 -1 7 C-6.94 5.515 -6.94 5.515 -13 4 C-13 3.67 -13 3.34 -13 3 C-12.22914063 2.95101562 -11.45828125 2.90203125 -10.6640625 2.8515625 C-9.66117187 2.77679688 -8.65828125 2.70203125 -7.625 2.625 C-6.62726563 2.55539063 -5.62953125 2.48578125 -4.6015625 2.4140625 C-1.84491121 2.23636036 -1.84491121 2.23636036 0 0 Z " fill="#F2D9C7" transform="translate(365,182)"/>
<path d="M0 0 C3.4375 1.25 3.4375 1.25 7 3 C7.9375 5.1875 7.9375 5.1875 8 7 C1.125 6.125 1.125 6.125 0 5 C-0.04063832 3.33382885 -0.042721 1.66611905 0 0 Z " fill="#F28D55" transform="translate(45,189)"/>
<path d="M0 0 C0.78375 0.04125 1.5675 0.0825 2.375 0.125 C1.6325 0.846875 0.89 1.56875 0.125 2.3125 C-2.31790515 4.81092573 -4.4931047 7.36143202 -6.625 10.125 C-6.955 9.135 -7.285 8.145 -7.625 7.125 C-4.075 0.19404762 -4.075 0.19404762 0 0 Z " fill="#54220D" transform="translate(176.625,226.875)"/>
<path d="M0 0 C0 0.66 0 1.32 0 2 C1.65 2 3.3 2 5 2 C4.01 3.32 3.02 4.64 2 6 C-1.36591866 4.55746343 -3.51047079 2.66735273 -6 0 C-3.50907189 -1.24546405 -2.58919267 -0.7767578 0 0 Z " fill="#5A2D14" transform="translate(199,227)"/>
<path d="M0 0 C2.8125 0.125 2.8125 0.125 6 1 C7.875 4.0625 7.875 4.0625 9 7 C8.01 7.495 8.01 7.495 7 8 C1.125 3.375 1.125 3.375 0 0 Z " fill="#4D341D" transform="translate(70,188)"/>
<path d="M0 0 C2.3639658 4.61308306 3.1854286 8.87983691 4 14 C3.01 14.33 2.02 14.66 1 15 C-0.44207941 12.11584117 -0.09394887 9.58278472 -0.0625 6.375 C-0.05347656 5.18648437 -0.04445313 3.99796875 -0.03515625 2.7734375 C-0.02355469 1.85820312 -0.01195312 0.94296875 0 0 Z " fill="#49321D" transform="translate(291,171)"/>
<path d="M0 0 C1.09658936 3.28976808 0.79953138 4.71303767 0 8 C-2.31 7.34 -4.62 6.68 -7 6 C-2.25 1.125 -2.25 1.125 0 0 Z " fill="#472B15" transform="translate(79,158)"/>
<path d="M0 0 C3.63 0 7.26 0 11 0 C11 0.33 11 0.66 11 1 C9.01432292 1.48828125 7.02864583 1.9765625 5.04296875 2.46484375 C3.34316798 2.91010705 1.66698046 3.44433985 0 4 C-0.33 4.99 -0.66 5.98 -1 7 C-1.33 6.01 -1.66 5.02 -2 4 C-1.34 2.68 -0.68 1.36 0 0 Z " fill="#F7D6BE" transform="translate(37,185)"/>
<path d="M0 0 C2.475 0.99 2.475 0.99 5 2 C1.74147635 4.1723491 -1.59244728 6.07119658 -5 8 C-5 6.35 -5 4.7 -5 3 C-3.35 3 -1.7 3 0 3 C0 2.01 0 1.02 0 0 Z " fill="#DFCDBB" transform="translate(155,185)"/>
<path d="M0 0 C1.32 0.33 2.64 0.66 4 1 C4 2.66666667 4 4.33333333 4 6 C1.03 5.505 1.03 5.505 -2 5 C-2 4.01 -2 3.02 -2 2 C-1.34 2 -0.68 2 0 2 C0 1.34 0 0.68 0 0 Z " fill="#F18B54" transform="translate(351,189)"/>
<path d="M0 0 C0.99 0 1.98 0 3 0 C3.3125 2.25 3.3125 2.25 3 5 C0.5 7.3125 0.5 7.3125 -2 9 C-2.66 8.67 -3.32 8.34 -4 8 C-2.68 5.36 -1.36 2.72 0 0 Z " fill="#DBCAB8" transform="translate(332,182)"/>
<path d="M0 0 C2.64 0.33 5.28 0.66 8 1 C4.7321794 3.17854707 1.61941735 4.49760034 -2 6 C-1.49396008 3.83125748 -1.00016187 2.00032373 0 0 Z " fill="#E1D1C3" transform="translate(300,155)"/>
<path d="M0 0 C0.66 0.33 1.32 0.66 2 1 C1.67 6.28 1.34 11.56 1 17 C0.67 17 0.34 17 0 17 C-0.06058594 16.16855469 -0.12117187 15.33710938 -0.18359375 14.48046875 C-0.26738281 13.39378906 -0.35117188 12.30710938 -0.4375 11.1875 C-0.51871094 10.10855469 -0.59992188 9.02960938 -0.68359375 7.91796875 C-0.90212461 4.94010095 -0.90212461 4.94010095 -2 2 C-1.34 2 -0.68 2 0 2 C0 1.34 0 0.68 0 0 Z " fill="#C9B5A3" transform="translate(140,203)"/>
<path d="M0 0 C1.98738098 0.01761863 3.97253109 0.16698176 5.953125 0.33203125 C5.953125 0.66203125 5.953125 0.99203125 5.953125 1.33203125 C1.953125 2.66536458 -2.046875 3.99869792 -6.046875 5.33203125 C-3.15469741 0.51173527 -3.15469741 0.51173527 0 0 Z " fill="#DDA17F" transform="translate(352.046875,185.66796875)"/>
<path d="M0 0 C2.38564077 0.57584432 4.66682784 1.22227595 7 2 C7 2.66 7 3.32 7 4 C5.02 4.66 3.04 5.32 1 6 C0.67 4.02 0.34 2.04 0 0 Z " fill="#DECFC1" transform="translate(75,154)"/>
<path d="M0 0 C0.33 0.66 0.66 1.32 1 2 C0.01 2 -0.98 2 -2 2 C-2 2.99 -2 3.98 -2 5 C-4.31 4.67 -6.62 4.34 -9 4 C-6.01353231 2.00902154 -3.40312738 1.05875074 0 0 Z " fill="#DBC4B4" transform="translate(245,240)"/>
<path d="M0 0 C0.680625 0.474375 1.36125 0.94875 2.0625 1.4375 C5.41841956 3.2225636 8.24161481 3.63153086 12 4 C12 4.33 12 4.66 12 5 C10.37509046 5.02698189 8.75005367 5.04638757 7.125 5.0625 C5.76761719 5.07990234 5.76761719 5.07990234 4.3828125 5.09765625 C2 5 2 5 0 4 C0 2.68 0 1.36 0 0 Z " fill="#F6D2BF" transform="translate(36,203)"/>
<path d="M0 0 C0.66 0 1.32 0 2 0 C2 2.64 2 5.28 2 8 C1.34 8 0.68 8 0 8 C-0.33 8.66 -0.66 9.32 -1 10 C-0.67 6.7 -0.34 3.4 0 0 Z " fill="#DA9F79" transform="translate(54,193)"/>
<path d="M0 0 C-1.32 0.33 -2.64 0.66 -4 1 C-4 1.66 -4 2.32 -4 3 C-7.75 4.125 -7.75 4.125 -10 3 C-10 2.34 -10 1.68 -10 1 C-6.61981469 -0.04005702 -3.5219721 -0.08004482 0 0 Z " fill="#DA8C7D" transform="translate(189,226)"/>
<path d="M0 0 C0.99 0 1.98 0 3 0 C3 0.66 3 1.32 3 2 C3.99 2 4.98 2 6 2 C6.33 3.65 6.66 5.3 7 7 C4.36 5.35 1.72 3.7 -1 2 C-0.67 1.34 -0.34 0.68 0 0 Z " fill="#DECBB8" transform="translate(244,187)"/>
<path d="M0 0 C0.33 0 0.66 0 1 0 C1.05416188 1.60379341 1.09286638 3.20811406 1.125 4.8125 C1.14820313 5.70582031 1.17140625 6.59914062 1.1953125 7.51953125 C1 10 1 10 -1 13 C-1.66 11.68 -2.32 10.36 -3 9 C-2.34 8.34 -1.68 7.68 -1 7 C-0.59952556 4.67724823 -0.2602896 2.34260643 0 0 Z " fill="#563E29" transform="translate(332,172)"/>
<path d="M0 0 C3.25543229 0.34879632 4.01873107 1.02133261 6.25 3.5625 C6.8275 4.366875 7.405 5.17125 8 6 C5 6 5 6 2.3125 3.5625 C0 1 0 1 0 0 Z " fill="#472F19" transform="translate(98,160)"/>
<path d="M0 0 C3.04095366 3.04095366 3.68440793 3.89730308 4 8 C3.34 8.66 2.68 9.32 2 10 C1.34 6.7 0.68 3.4 0 0 Z " fill="#D08D78" transform="translate(226,232)"/>
</svg>
