<?xml version="1.0" encoding="UTF-8"?>
<svg id="id" version="1.1" xmlns="http://www.w3.org/2000/svg" width="395" height="235">
<path d="M0 0 C130.35 0 260.7 0 395 0 C395 77.55 395 155.1 395 235 C264.65 235 134.3 235 0 235 C0 157.45 0 79.9 0 0 Z " fill="#FCFCFC" transform="translate(0,0)"/>
<path d="M0 0 C0 0.66 0 1.32 0 2 C0.66 2 1.32 2 2 2 C3.4453125 3.46875 3.4453125 3.46875 5.125 5.5 C7.64257902 8.46677361 10.22168976 11.27574249 13 14 C16.88266149 17.8219949 20.47018764 21.85247047 24 26 C28.35198942 24.37191763 30.91706256 21.12112494 33.9375 17.75 C34.44990234 17.18925781 34.96230469 16.62851562 35.49023438 16.05078125 C38.00004703 13.2890306 40.42061905 10.49066978 42.75390625 7.578125 C43.49511719 6.72734375 44.23632812 5.8765625 45 5 C45.66 5 46.32 5 47 5 C47.37125 4.0409375 47.37125 4.0409375 47.75 3.0625 C49 1 49 1 51.078125 0.37109375 C52.02945313 0.18740234 52.02945313 0.18740234 53 0 C53.63615234 0.74443359 53.63615234 0.74443359 54.28515625 1.50390625 C57.25789872 4.94706071 60.2532009 8.31209975 63.5 11.5 C68.03662691 15.96526424 72.23289972 20.71316434 76.125 25.75 C77.9293006 28.07506847 77.9293006 28.07506847 80.3125 29.8125 C83.15361584 32.12503615 85.32641885 34.58931895 87.68359375 37.37890625 C89.60634925 39.55457056 91.57134242 41.63744199 93.59765625 43.71484375 C94.5578064 44.70907349 94.5578064 44.70907349 95.53735352 45.72338867 C96.8366988 47.06508107 98.14571514 48.39748048 99.46459961 49.7199707 C100.06409424 50.34347412 100.66358887 50.96697754 101.28125 51.609375 C101.82845703 52.16592773 102.37566406 52.72248047 102.93945312 53.29589844 C104 55 104 55 103.81103516 57.0546875 C102.52805666 60.1319821 100.27039017 61.96556795 97.875 64.25 C93.95861255 68.00365667 90.32799235 71.85589044 86.78125 75.96044922 C83.95582172 79.19559558 81.01072511 82.31453267 78.0625 85.4375 C76.75507722 86.82409514 75.44779053 88.2108186 74.140625 89.59765625 C73.46708984 90.31195801 72.79355469 91.02625977 72.09960938 91.76220703 C69.9249704 94.07996759 67.76588638 96.41146484 65.609375 98.74609375 C64.89128662 99.51961182 64.17319824 100.29312988 63.43334961 101.09008789 C62.04436459 102.58652058 60.65958919 104.08687429 59.27954102 105.59155273 C58.64717529 106.27032471 58.01480957 106.94909668 57.36328125 107.6484375 C56.53244019 108.54828369 56.53244019 108.54828369 55.68481445 109.46630859 C53.9011207 111.09001011 52.19762066 112.02934174 50 113 C49.61070312 112.53851563 49.22140625 112.07703125 48.8203125 111.6015625 C44.57603605 106.65316645 40.07781836 102.04931171 35.4375 97.47265625 C32.60183944 94.59609674 29.96661443 91.59232541 27.375 88.49609375 C26.05072456 86.87706069 26.05072456 86.87706069 24 86 C24 86.66 24 87.32 24 88 C23.34 88 22.68 88 22 88 C22 88.66 22 89.32 22 90 C20.38152825 91.71350657 18.7053967 93.37298505 17 95 C11.09836114 100.81624537 5.34528831 106.6635324 0 113 C-6.8303689 109.93451854 -11.37942169 103.60849642 -16.17578125 98.046875 C-20.04910778 93.70078698 -24.26980897 89.68582716 -28.4375 85.625 C-33.19292242 80.75359167 -37.67805339 75.62932416 -42.18359375 70.52734375 C-42.86550781 69.75519531 -43.54742187 68.98304687 -44.25 68.1875 C-44.89582031 67.4553125 -45.54164062 66.723125 -46.20703125 65.96875 C-47.72975245 64.29674241 -49.29102161 62.73490663 -50.9375 61.1875 C-53.06968373 58.92609301 -53.73029932 58.03556721 -54 55 C-52.8125 53.359375 -52.8125 53.359375 -51 51.75 C-48.39554668 49.33047828 -45.98469794 46.90137346 -43.6875 44.1875 C-40.92381971 40.97666245 -38.01380404 37.97732835 -35 35 C-32.04816975 32.08373397 -29.19611141 29.15394165 -26.5 26 C-23.02265293 21.93216003 -19.23497789 18.21996296 -15.4296875 14.4609375 C-12.64519732 11.64063394 -10.0484316 8.69835344 -7.46484375 5.6953125 C-2.5437788 0 -2.5437788 0 0 0 Z " fill="#E31D25" transform="translate(173,43)"/>
<path d="M0 0 C3 0 3 0 4.578125 1.50390625 C5.40570313 2.52291016 5.40570313 2.52291016 6.25 3.5625 C8.57004174 6.33582721 10.9112002 8.97533713 13.5 11.5 C18.03662691 15.96526424 22.23289972 20.71316434 26.125 25.75 C27.9293006 28.07506847 27.9293006 28.07506847 30.3125 29.8125 C33.15361584 32.12503615 35.32641885 34.58931895 37.68359375 37.37890625 C39.60634925 39.55457056 41.57134242 41.63744199 43.59765625 43.71484375 C44.23775635 44.37766357 44.87785645 45.0404834 45.53735352 45.72338867 C46.8366988 47.06508107 48.14571514 48.39748048 49.46459961 49.7199707 C50.06409424 50.34347412 50.66358887 50.96697754 51.28125 51.609375 C51.82845703 52.16592773 52.37566406 52.72248047 52.93945312 53.29589844 C54 55 54 55 53.81103516 57.0546875 C52.52805666 60.1319821 50.27039017 61.96556795 47.875 64.25 C43.95861255 68.00365667 40.32799235 71.85589044 36.78125 75.96044922 C33.95582172 79.19559558 31.01072511 82.31453267 28.0625 85.4375 C26.75507722 86.82409514 25.44779053 88.2108186 24.140625 89.59765625 C23.46708984 90.31195801 22.79355469 91.02625977 22.09960938 91.76220703 C19.9249704 94.07996759 17.76588638 96.41146484 15.609375 98.74609375 C14.89128662 99.51961182 14.17319824 100.29312988 13.43334961 101.09008789 C12.04436459 102.58652058 10.65958919 104.08687429 9.27954102 105.59155273 C8.64717529 106.27032471 8.01480957 106.94909668 7.36328125 107.6484375 C6.53244019 108.54828369 6.53244019 108.54828369 5.68481445 109.46630859 C3.9011207 111.09001011 2.19762066 112.02934174 0 113 C-0.38929688 112.53851563 -0.77859375 112.07703125 -1.1796875 111.6015625 C-4.71154823 107.48377096 -8.37347303 103.67071424 -12.3125 99.9375 C-16.26016704 96.06171764 -18.28394548 93.48975134 -19 88 C-19.66 88 -20.32 88 -21 88 C-20.86237818 82.4951273 -18.54075512 79.69530972 -14.98046875 75.8046875 C-13.09358877 74.08528207 -11.47689417 73.08470248 -9.1875 72 C-5.94613673 70.40451388 -5.94613673 70.40451388 -5.2578125 68.125 C-4.9642355 66.72407114 -4.69661354 65.31741599 -4.45703125 63.90625 C-3.77891516 61.07786836 -2.27902426 59.7092682 0 58 C0.66 58 1.32 58 2 58 C1.57742724 56.5164999 1.13643678 55.03823576 0.6875 53.5625 C0.44386719 52.73878906 0.20023438 51.91507813 -0.05078125 51.06640625 C-0.36402344 50.38449219 -0.67726562 49.70257813 -1 49 C-2.485 48.505 -2.485 48.505 -4 48 C-4 47.34 -4 46.68 -4 46 C-4.66 46 -5.32 46 -6 46 C-6.103125 45.360625 -6.20625 44.72125 -6.3125 44.0625 C-6.539375 43.381875 -6.76625 42.70125 -7 42 C-7.99 41.67 -8.98 41.34 -10 41 C-10 39.68 -10 38.36 -10 37 C-11.32 37 -12.64 37 -14 37 C-14 36.34 -14 35.68 -14 35 C-14.598125 34.731875 -15.19625 34.46375 -15.8125 34.1875 C-17.99847854 33.00082594 -19.41332594 31.90400887 -21 30 C-21 29.34 -21 28.68 -21 28 C-21.66 27.67 -22.32 27.34 -23 27 C-20.75390625 24.90039062 -20.75390625 24.90039062 -18.5078125 22.80078125 C-16.86004949 21.02970981 -16.86004949 21.02970981 -16.0546875 18.55078125 C-14.82616423 15.57957496 -13.33448468 14.06357939 -11 11.875 C-8.60981756 9.61662909 -6.83839255 7.75758882 -5 5 C-4.34 5 -3.68 5 -3 5 C-2.690625 4.360625 -2.38125 3.72125 -2.0625 3.0625 C-1 1 -1 1 0 0 Z " fill="#E31D25" transform="translate(223,43)"/>
<path d="M0 0 C3.20346883 1.39818938 5.20931041 3.02295573 7.56640625 5.58984375 C8.21673828 6.29173828 8.86707031 6.99363281 9.53710938 7.71679688 C10.53967773 8.81604492 10.53967773 8.81604492 11.5625 9.9375 C12.89682312 11.38440264 14.23144729 12.83102773 15.56640625 14.27734375 C16.44727905 15.24015259 16.44727905 15.24015259 17.34594727 16.22241211 C18.43037699 17.38783393 19.55331517 18.51880684 20.71459961 19.60766602 C22 21 22 21 22 23 C23.32 23.66 24.64 24.32 26 25 C26 25.66 26 26.32 26 27 C28.31 25.35 30.62 23.7 33 22 C33.495 23.485 33.495 23.485 34 25 C33.67 25.66 33.34 26.32 33 27 C30.4375 27.625 30.4375 27.625 28 28 C28.495 29.485 28.495 29.485 29 31 C28.34 31 27.68 31 27 31 C27 31.66 27 32.32 27 33 C25.68 33.33 24.36 33.66 23 34 C23 34.66 23 35.32 23 36 C23.804375 36.309375 24.60875 36.61875 25.4375 36.9375 C28 38 28 38 29 39 C29.08726223 40.78071246 29.10699041 42.5648314 29.09765625 44.34765625 C29.09282227 45.96704102 29.09282227 45.96704102 29.08789062 47.61914062 C29.07532227 49.32360352 29.07532227 49.32360352 29.0625 51.0625 C29.05798828 52.20267578 29.05347656 53.34285156 29.04882812 54.51757812 C29.03699747 57.34510351 29.0205141 60.1725264 29 63 C27.68 63 26.36 63 25 63 C25 56.73 25 50.46 25 44 C24.34 44 23.68 44 23 44 C22.9175 45.093125 22.835 46.18625 22.75 47.3125 C22.08495622 52.84129678 20.03540728 57.84994624 18 63 C17.34 63 16.68 63 16 63 C14.35 57.72 12.7 52.44 11 47 C10.67 52.28 10.34 57.56 10 63 C8.68 63 7.36 63 6 63 C5.505 59.04 5.505 59.04 5 55 C4.59910156 55.56589844 4.19820312 56.13179687 3.78515625 56.71484375 C0.76762365 60.60821348 -1.54169955 63.47853654 -6.5625 64.3125 C-9.95358442 64.41121307 -11.87743215 63.82079526 -14.5625 61.75 C-17 59 -17 59 -17 56 C-17.66 56 -18.32 56 -19 56 C-19 57.32 -19 58.64 -19 60 C-21.99948879 62.57099039 -24.13257291 63.87608184 -28.0625 64.4375 C-31.44186979 63.93418961 -33.30792498 63.09383612 -36 61 C-38.12054026 57.72413092 -38.21670998 55.10181902 -38.125 51.25 C-38.10695312 50.26515625 -38.08890625 49.2803125 -38.0703125 48.265625 C-38.04710937 47.51796875 -38.02390625 46.7703125 -38 46 C-40.05922402 48.05922402 -39.41427579 52.21708124 -39.5625 55.0625 C-39.60568359 55.82111328 -39.64886719 56.57972656 -39.69335938 57.36132812 C-39.79973633 59.24065438 -39.90039934 61.12030244 -40 63 C-42.475 63.495 -42.475 63.495 -45 64 C-45 60.37 -45 56.74 -45 53 C-47.64 53 -50.28 53 -53 53 C-53 56.3 -53 59.6 -53 63 C-54.32 63 -55.64 63 -57 63 C-57 55.08 -57 47.16 -57 39 C-55.68 39 -54.36 39 -53 39 C-53 42.3 -53 45.6 -53 49 C-50.36 49 -47.72 49 -45 49 C-45.02320313 48.22914063 -45.04640625 47.45828125 -45.0703125 46.6640625 C-45.08835938 45.66117188 -45.10640625 44.65828125 -45.125 43.625 C-45.14820313 42.62726563 -45.17140625 41.62953125 -45.1953125 40.6015625 C-45 38 -45 38 -43 36 C-42.46890625 36.23976562 -41.9378125 36.47953125 -41.390625 36.7265625 C-40.68421875 37.02304688 -39.9778125 37.31953125 -39.25 37.625 C-38.55390625 37.92664063 -37.8578125 38.22828125 -37.140625 38.5390625 C-34.59776473 39.32010993 -34.59776473 39.32010993 -31 37 C-31.33 34.03 -31.66 31.06 -32 28 C-31.01 28 -30.02 28 -29 28 C-29.66 27.21625 -30.32 26.4325 -31 25.625 C-33 23 -33 23 -33 21 C-34.32 20.34 -35.64 19.68 -37 19 C-36.67 17.68 -36.34 16.36 -36 15 C-35.39671875 15.721875 -34.7934375 16.44375 -34.171875 17.1875 C-33.37265625 18.115625 -32.5734375 19.04375 -31.75 20 C-30.96109375 20.928125 -30.1721875 21.85625 -29.359375 22.8125 C-27.04736227 25.45326139 -27.04736227 25.45326139 -23 25 C-21.25641901 23.73187334 -21.25641901 23.73187334 -19.72265625 21.9296875 C-19.12646484 21.28 -18.53027344 20.6303125 -17.91601562 19.9609375 C-17.30435547 19.27257812 -16.69269531 18.58421875 -16.0625 17.875 C-15.45470703 17.20984375 -14.84691406 16.5446875 -14.22070312 15.859375 C-11.44885979 12.8094503 -8.7612327 9.7234809 -6.18359375 6.5078125 C-5.46300781 5.68023437 -4.74242187 4.85265625 -4 4 C-3.34 4 -2.68 4 -2 4 C-2 3.34 -2 2.68 -2 2 C-1.34 2 -0.68 2 0 2 C0 1.34 0 0.68 0 0 Z " fill="#FAFAFA" transform="translate(197,129)"/>
<path d="M0 0 C8.17208206 3.66764467 14.00844343 12.21586162 19.6328125 18.95703125 C21.78289729 21.52308722 23.66819403 23.75551139 26.375 25.75 C26.91125 26.1625 27.4475 26.575 28 27 C28 27.99 28 28.98 28 30 C26.34808509 31.35156675 24.67705908 32.679762 23 34 C21.99644347 35.08204699 21.02012511 36.18959949 20.0625 37.3125 C16.35286412 41.65972955 12.4678884 45.82945809 8.5625 50 C7.92256104 50.68360596 7.28262207 51.36721191 6.62329102 52.0715332 C5.08317538 53.71528046 3.54212853 55.35814138 2 57 C-2.19994573 55.10236316 -4.79515006 52.20981252 -7.8125 48.8125 C-8.88174345 47.63054243 -9.95204914 46.4495449 -11.0234375 45.26953125 C-11.53616211 44.70314941 -12.04888672 44.13676758 -12.57714844 43.55322266 C-14.31729338 41.6536341 -16.1099516 39.81547209 -17.9375 38 C-18.46214844 37.47792969 -18.98679688 36.95585938 -19.52734375 36.41796875 C-20.52034847 35.46183954 -21.53426412 34.52702304 -22.56640625 33.61328125 C-25.96701796 30.52771258 -25.96701796 30.52771258 -26.125 28 C-24.5339358 25.17144142 -22.3467408 23.19103288 -20 21 C-14.96113187 16.07436487 -10.09771082 11.078234 -5.5078125 5.73046875 C-3.76065928 3.72531622 -1.91829882 1.84156687 0 0 Z " fill="#FAFAFA" transform="translate(197,71)"/>
<path d="M0 0 C0.495 0.99 0.495 0.99 1 2 C-0.0945149 3.65226769 -1.2009517 5.29664298 -2.3125 6.9375 C-2.92738281 7.85402344 -3.54226562 8.77054688 -4.17578125 9.71484375 C-6 12 -6 12 -9 13 C-9.33 13.66 -9.66 14.32 -10 15 C-10.33 15.66 -10.66 16.32 -11 17 C-11.99 17.33 -12.98 17.66 -14 18 C-15.22520264 21.00847418 -15.22520264 21.00847418 -16 24 C-15.34 24 -14.68 24 -14 24 C-13.505 24.99 -13.505 24.99 -13 26 C-11.02111039 26.72693904 -9.02045442 27.39816251 -7 28 C-7 29.32 -7 30.64 -7 32 C-6.71125 31.360625 -6.4225 30.72125 -6.125 30.0625 C-5 28 -5 28 -3 27 C-1.19156337 26.85283458 0.62331566 26.7789113 2.4375 26.75 C3.88962891 26.71132812 3.88962891 26.71132812 5.37109375 26.671875 C8 27 8 27 9.7734375 28.3828125 C13.36712287 33.12098365 13.75503393 38.25389766 13 44 C12.1104563 47.21190946 11.2785656 48.33241101 9 51 C5.90594413 52.24466764 3.29317662 52.50051734 0 52 C-2.71309564 50.62963805 -3.92376589 49.34241798 -6 47 C-6 46.01 -6 45.02 -6 44 C-6.66 44 -7.32 44 -8 44 C-8 45.32 -8 46.64 -8 48 C-10.99948879 50.57099039 -13.13257291 51.87608184 -17.0625 52.4375 C-20.44186979 51.93418961 -22.30792498 51.09383612 -25 49 C-27.12054026 45.72413092 -27.21670998 43.10181902 -27.125 39.25 C-27.10695312 38.26515625 -27.08890625 37.2803125 -27.0703125 36.265625 C-27.04710937 35.51796875 -27.02390625 34.7703125 -27 34 C-29.05922402 36.05922402 -28.41427579 40.21708124 -28.5625 43.0625 C-28.60568359 43.82111328 -28.64886719 44.57972656 -28.69335938 45.36132812 C-28.79973633 47.24065438 -28.90039934 49.12030244 -29 51 C-31.475 51.495 -31.475 51.495 -34 52 C-34 48.37 -34 44.74 -34 41 C-36.64 41 -39.28 41 -42 41 C-42 44.3 -42 47.6 -42 51 C-43.32 51 -44.64 51 -46 51 C-46 43.08 -46 35.16 -46 27 C-44.68 27 -43.36 27 -42 27 C-42 30.3 -42 33.6 -42 37 C-39.36 37 -36.72 37 -34 37 C-34.02320313 36.22914063 -34.04640625 35.45828125 -34.0703125 34.6640625 C-34.08835938 33.66117188 -34.10640625 32.65828125 -34.125 31.625 C-34.14820313 30.62726563 -34.17140625 29.62953125 -34.1953125 28.6015625 C-34 26 -34 26 -32 24 C-31.20335937 24.35964844 -31.20335937 24.35964844 -30.390625 24.7265625 C-29.68421875 25.02304688 -28.9778125 25.31953125 -28.25 25.625 C-27.55390625 25.92664063 -26.8578125 26.22828125 -26.140625 26.5390625 C-23.59776473 27.32010993 -23.59776473 27.32010993 -20 25 C-20.33 22.03 -20.66 19.06 -21 16 C-20.01 16 -19.02 16 -18 16 C-18.66 15.21625 -19.32 14.4325 -20 13.625 C-22 11 -22 11 -22 9 C-23.32 8.34 -24.64 7.68 -26 7 C-25.67 5.68 -25.34 4.36 -25 3 C-24.39671875 3.721875 -23.7934375 4.44375 -23.171875 5.1875 C-22.37265625 6.115625 -21.5734375 7.04375 -20.75 8 C-19.96109375 8.928125 -19.1721875 9.85625 -18.359375 10.8125 C-16.04736227 13.45326139 -16.04736227 13.45326139 -12 13 C-10.36946391 11.82787157 -10.36946391 11.82787157 -8.984375 10.15625 C-8.45585937 9.56972656 -7.92734375 8.98320312 -7.3828125 8.37890625 C-6.84398437 7.75886719 -6.30515625 7.13882813 -5.75 6.5 C-5.19570312 5.87996094 -4.64140625 5.25992188 -4.0703125 4.62109375 C-2.70365465 3.08949443 -1.35050499 1.54586106 0 0 Z " fill="#FDF5F9" transform="translate(186,141)"/>
<path d="M0 0 C3.526875 -0.061875 3.526875 -0.061875 7.125 -0.125 C7.85348145 -0.14320801 8.58196289 -0.16141602 9.33251953 -0.18017578 C13.62036412 -0.21622763 17.02263619 0.42640124 21 2 C21.66 1.34 22.32 0.68 23 0 C30.08284024 -0.56213018 30.08284024 -0.56213018 32.9375 1.1875 C34.24912987 3.42498625 34.65447612 5.44312331 35 8 C33.68 8 32.36 8 31 8 C30.34 7.01 29.68 6.02 29 5 C26.41619823 4.74969023 26.41619823 4.74969023 24 5 C22.76815234 7.46369532 22.83267658 9.1894501 22.8125 11.9375 C22.79123047 13.25041016 22.79123047 13.25041016 22.76953125 14.58984375 C22.83336651 17.26244335 22.83336651 17.26244335 25 20 C27.56282742 20.72965366 27.56282742 20.72965366 30 21 C30.33 19.68 30.66 18.36 31 17 C32.32 17 33.64 17 35 17 C33.546875 22.5703125 33.546875 22.5703125 31.25 24.375 C28.43546104 25.15681638 25.90641633 25.13210983 23 25 C22.34 23.68 21.68 22.36 21 21 C20.34 21 19.68 21 19 21 C19 20.01 19 19.02 19 18 C18.34 18 17.68 18 17 18 C17 17.01 17 16.02 17 15 C16.13375 15.185625 15.2675 15.37125 14.375 15.5625 C10.94847372 16.00667933 8.35787629 15.71954492 5 15 C5 16.65 5 18.3 5 20 C8.3 20 11.6 20 15 20 C15 21.65 15 23.3 15 25 C10.05 25 5.1 25 0 25 C0 16.75 0 8.5 0 0 Z " fill="#E6A0A8" transform="translate(101,168)"/>
<path d="M0 0 C3.96 0 7.92 0 12 0 C13.32 1.32 14.64 2.64 16 4 C15.75 7.625 15.75 7.625 15 11 C15 11.66 15 12.32 15 13 C15.66 13.66 16.32 14.32 17 15 C16.875 18.4375 16.875 18.4375 16 22 C12 25 12 25 0 25 C0 16.75 0 8.5 0 0 Z " fill="#353536" transform="translate(231,168)"/>
<path d="M0 0 C3.875 0.5625 3.875 0.5625 5.75 1.75 C8.94199692 6.89266171 9.65922406 11.59424938 8.875 17.5625 C7.9854563 20.77440946 7.1535656 21.89491101 4.875 24.5625 C1.80239708 25.70697411 -0.87569238 25.98658243 -4.125 25.5625 C-7.19549877 23.41315086 -7.94191629 22.11175112 -9.125 18.5625 C-10.27120456 7.21507484 -10.27120456 7.21507484 -7.125 2.8125 C-4.18496221 0.60747166 -3.45092221 0.17190941 0 0 Z " fill="#C12D3E" transform="translate(190.125,167.4375)"/>
<path d="M0 0 C0.87269531 -0.02578125 1.74539062 -0.0515625 2.64453125 -0.078125 C5.65085545 0.3097878 6.85509714 1.39190129 9.1875 3.25 C10.1775 3.25 11.1675 3.25 12.1875 3.25 C12.1875 10.84 12.1875 18.43 12.1875 26.25 C13.5075 26.58 14.8275 26.91 16.1875 27.25 C11.5675 27.25 6.9475 27.25 2.1875 27.25 C3.5075 26.59 4.8275 25.93 6.1875 25.25 C7.47981642 22.20800528 7.47981642 22.20800528 8.1875 19.25 C6.8675 19.25 5.5475 19.25 4.1875 19.25 C3.8575 20.57 3.5275 21.89 3.1875 23.25 C0.875 23.5 0.875 23.5 -1.8125 23.25 C-3.8869592 21.11163566 -4.74020495 19.74207274 -5.17578125 16.77734375 C-5.15902344 15.92269531 -5.14226562 15.06804687 -5.125 14.1875 C-5.12113281 13.33027344 -5.11726563 12.47304687 -5.11328125 11.58984375 C-4.8125 9.25 -4.8125 9.25 -2.8125 6.25 C-0.1875 6.0625 -0.1875 6.0625 2.1875 6.25 C2.8475 7.57 3.5075 8.89 4.1875 10.25 C5.5075 10.25 6.8275 10.25 8.1875 10.25 C6.5547149 6.50332798 6.5547149 6.50332798 4.1875 3.25 C-1.68896031 2.78668563 -1.68896031 2.78668563 -6.8125 5.25 C-5.70641104 0.35160603 -5.03439381 0.08845201 0 0 Z " fill="#F7F9F7" transform="translate(127.8125,165.75)"/>
<path d="M0 0 C2.31 0 4.62 0 7 0 C7 7.92 7 15.84 7 24 C5.68 24 4.36 24 3 24 C3 17.73 3 11.46 3 5 C2.34 5 1.68 5 1 5 C0.9175 6.093125 0.835 7.18625 0.75 8.3125 C0.08495622 13.84129678 -1.96459272 18.84994624 -4 24 C-4.66 24 -5.32 24 -6 24 C-7.65 18.72 -9.3 13.44 -11 8 C-11.33 13.28 -11.66 18.56 -12 24 C-12.99 24 -13.98 24 -15 24 C-15 16.41 -15 8.82 -15 1 C-13.02 1 -11.04 1 -9 1 C-7.68 4.96 -6.36 8.92 -5 13 C-3.50748294 10.01496588 -2.39012279 7.38765227 -1.375 4.25 C-1.11460937 3.45078125 -0.85421875 2.6515625 -0.5859375 1.828125 C-0.39257812 1.22484375 -0.19921875 0.6215625 0 0 Z " fill="#C4364D" transform="translate(219,168)"/>
<path d="M0 0 C1.65 0 3.3 0 5 0 C6.984375 2.51953125 6.984375 2.51953125 8.75 5.8125 C9.34296875 6.89144531 9.9359375 7.97039062 10.546875 9.08203125 C12 12 12 12 13 15 C13.33 10.05 13.66 5.1 14 0 C14.99 0 15.98 0 17 0 C17 7.92 17 15.84 17 24 C12 23 12 23 9.98046875 20.05859375 C9.36491918 18.86058867 8.76771726 17.65301033 8.1875 16.4375 C7.87619141 15.82197266 7.56488281 15.20644531 7.24414062 14.57226562 C6.48017752 13.05609269 5.73792513 11.52901489 5 10 C4.67 14.62 4.34 19.24 4 24 C2.68 24.33 1.36 24.66 0 25 C0 16.75 0 8.5 0 0 Z " fill="#2A2A2A" transform="translate(272,168)"/>
<path d="M0 0 C1.2065625 0.0309375 1.2065625 0.0309375 2.4375 0.0625 C5.67126436 7.82353446 7.48773135 15.90712249 9.4375 24.0625 C8.1175 24.0625 6.7975 24.0625 5.4375 24.0625 C5.1075 22.4125 4.7775 20.7625 4.4375 19.0625 C1.1375 19.0625 -2.1625 19.0625 -5.5625 19.0625 C-5.8925 20.7125 -6.2225 22.3625 -6.5625 24.0625 C-7.5525 24.0625 -8.5425 24.0625 -9.5625 24.0625 C-5.45723102 0.1331032 -5.45723102 0.1331032 0 0 Z " fill="#212121" transform="translate(259.5625,167.9375)"/>
<path d="M0 0 C1.32 0 2.64 0 4 0 C4 3.3 4 6.6 4 10 C6.64 10 9.28 10 12 10 C12 7.03 12 4.06 12 1 C13.32 1 14.64 1 16 1 C16 8.92 16 16.84 16 25 C14.68 25 13.36 25 12 25 C12 21.37 12 17.74 12 14 C9.36 14 6.72 14 4 14 C4 17.3 4 20.6 4 24 C2.68 24 1.36 24 0 24 C0 16.08 0 8.16 0 0 Z " fill="#DA5666" transform="translate(140,168)"/>
<path d="M0 0 C1.32 0 2.64 0 4 0 C4.33 3.63 4.66 7.26 5 11 C5.45890625 10.2059375 5.9178125 9.411875 6.390625 8.59375 C7.00421875 7.5728125 7.6178125 6.551875 8.25 5.5 C8.85328125 4.4790625 9.4565625 3.458125 10.078125 2.40625 C11.02945312 1.21515625 11.02945312 1.21515625 12 0 C13.32 0 14.64 0 16 0 C14.12652068 4.81751825 14.12652068 4.81751825 12.78125 6.7578125 C11.5733399 10.22451447 12.96669608 12.32405482 14.375 15.625 C17 21.87165775 17 21.87165775 17 24 C15.35 23.67 13.7 23.34 12 23 C11.01 19.7 10.02 16.4 9 13 C5.87729874 15.51830747 5.05476902 16.7261549 4.25 20.75 C4.1675 21.8225 4.085 22.895 4 24 C2.68 24 1.36 24 0 24 C0 16.08 0 8.16 0 0 Z " fill="#161616" transform="translate(295,168)"/>
<path d="M0 0 C3.875 0.5625 3.875 0.5625 5.8125 1.75 C7.12412987 3.98748625 7.52947612 6.00562331 7.875 8.5625 C6.555 8.5625 5.235 8.5625 3.875 8.5625 C3.215 7.5725 2.555 6.5825 1.875 5.5625 C-0.70880177 5.31219023 -0.70880177 5.31219023 -3.125 5.5625 C-4.35684766 8.02619532 -4.29232342 9.7519501 -4.3125 12.5 C-4.32667969 13.37527344 -4.34085937 14.25054687 -4.35546875 15.15234375 C-4.29163349 17.82494335 -4.29163349 17.82494335 -2.125 20.5625 C0.43782742 21.29215366 0.43782742 21.29215366 2.875 21.5625 C3.205 20.2425 3.535 18.9225 3.875 17.5625 C5.195 17.5625 6.515 17.5625 7.875 17.5625 C6.421875 23.1328125 6.421875 23.1328125 4.125 24.9375 C1.31046104 25.71931638 -1.21858367 25.69460983 -4.125 25.5625 C-4.785 24.2425 -5.445 22.9225 -6.125 21.5625 C-6.785 21.5625 -7.445 21.5625 -8.125 21.5625 C-9.89713615 16.24609155 -10.37525607 9.73487872 -8.2890625 4.44140625 C-6.00848671 1.25013073 -3.7690566 0.18775743 0 0 Z " fill="#C7354D" transform="translate(128.125,167.4375)"/>
<path d="M0 0 C0.3125 2.25 0.3125 2.25 0 5 C-2.60889751 7.53838677 -4.54220951 8.84740317 -8 10 C-9.86352846 11.94621691 -9.86352846 11.94621691 -11.625 14.3125 C-12.54152344 15.48232422 -12.54152344 15.48232422 -13.4765625 16.67578125 C-14.91269962 18.86681095 -15.56698556 20.4428742 -16 23 C-15.34 23 -14.68 23 -14 23 C-13.505 24.98 -13.505 24.98 -13 27 C-15.64 25.02 -18.28 23.04 -21 21 C-21 21.66 -21 22.32 -21 23 C-21.66 23 -22.32 23 -23 23 C-23 23.66 -23 24.32 -23 25 C-24.61847175 26.71350657 -26.2946033 28.37298505 -28 30 C-33.90163886 35.81624537 -39.65471169 41.6635324 -45 48 C-48.71860179 46.46126823 -49.35633541 45.52488612 -52 42 C-48.7 42.33 -45.4 42.66 -42 43 C-41.34 41.68 -40.68 40.36 -40 39 C-38.66666667 37.66666667 -37.33333333 36.33333333 -36 35 C-35.71253906 34.36964844 -35.42507812 33.73929688 -35.12890625 33.08984375 C-33.39140245 29.87335748 -30.62447017 28.09791436 -27.77734375 25.87890625 C-25.64457432 23.62426428 -25.33895655 22.0401795 -25 19 C-26.32 18.67 -27.64 18.34 -29 18 C-29 17.34 -29 16.68 -29 16 C-28.34 16 -27.68 16 -27 16 C-27.33 14.68 -27.66 13.36 -28 12 C-27.2575 12.78375 -26.515 13.5675 -25.75 14.375 C-23.40578023 16.61266433 -21.85675015 17.69370826 -19 19 C-14.30762016 14.41731215 -9.80319423 9.75053386 -5.54296875 4.76171875 C-1.37250554 0 -1.37250554 0 0 0 Z " fill="#B6333E" transform="translate(218,108)"/>
<path d="M0 0 C0.99 0.66 1.98 1.32 3 2 C3.1875 4.625 3.1875 4.625 3 7 C2.01 7 1.02 7 0 7 C-0.66 6.01 -1.32 5.02 -2 4 C-4.54207971 3.66656449 -4.54207971 3.66656449 -7 4 C-8.80746134 5.80746134 -8.17303483 8.50445781 -8.1875 10.9375 C-8.20167969 12.01902344 -8.21585938 13.10054687 -8.23046875 14.21484375 C-8.29048031 17.14044315 -8.29048031 17.14044315 -6 19 C-3.42459787 18.83492354 -3.42459787 18.83492354 -1 18 C-0.67 17.34 -0.34 16.68 0 16 C0.99 16 1.98 16 3 16 C2.67842796 18.97454134 2.37860258 20.59335278 0.3125 22.8125 C-2.73546155 24.37766945 -4.61485573 24.49366687 -8 24 C-10.84780619 21.76793569 -11.84997666 20.45007001 -13 17 C-13.1447963 15.04524991 -13.22067502 13.0848862 -13.25 11.125 C-13.28867188 9.58199219 -13.28867188 9.58199219 -13.328125 8.0078125 C-12.95503198 4.58779313 -12.03027507 2.74974147 -10 0 C-6.80429821 -1.59785089 -3.38635924 -0.77115111 0 0 Z " fill="#B53040" transform="translate(174,169)"/>
<path d="M0 0 C5.28 0 10.56 0 16 0 C16 1.32 16 2.64 16 4 C14.02 4 12.04 4 10 4 C10 10.6 10 17.2 10 24 C8.35 24.33 6.7 24.66 5 25 C5 18.07 5 11.14 5 4 C3.02 4 1.04 4 -1 4 C-0.67 2.68 -0.34 1.36 0 0 Z " fill="#D75F6F" transform="translate(83,168)"/>
<path d="M0 0 C4.29 0 8.58 0 13 0 C13 0.99 13 1.98 13 3 C9.7 3 6.4 3 3 3 C3 4.98 3 6.96 3 9 C5.97 9 8.94 9 12 9 C12 10.32 12 11.64 12 13 C9.03 13 6.06 13 3 13 C3 15.31 3 17.62 3 20 C6.63 20 10.26 20 14 20 C14 20.99 14 21.98 14 23 C9.38 23 4.76 23 0 23 C0 15.41 0 7.82 0 0 Z " fill="#D71C38" transform="translate(102,169)"/>
<path d="M0 0 C1.98 0.66 3.96 1.32 6 2 C5.01 2.495 5.01 2.495 4 3 C4 3.66 4 4.32 4 5 C5.65 5.33 7.3 5.66 9 6 C8.75 8.375 8.75 8.375 8 11 C6.0625 12.0625 6.0625 12.0625 4 13 C3.30062468 14.31647119 2.63270867 15.65022151 2 17 C1.01 17.66 0.02 18.32 -1 19 C-2.19232613 21.05003955 -2.19232613 21.05003955 -3 23 C-4.65 23 -6.3 23 -8 23 C-4.74063744 17.29611553 -1.27578751 12.95684063 4 9 C2.68 8.67 1.36 8.34 0 8 C0 8.66 0 9.32 0 10 C-1.32 10 -2.64 10 -4 10 C-4.66 11.65 -5.32 13.3 -6 15 C-6.99 15 -7.98 15 -9 15 C-9 13.68 -9 12.36 -9 11 C-8.01 10.67 -7.02 10.34 -6 10 C-5.30959426 8.34302621 -4.6469365 6.6744239 -4 5 C-2.71332828 3.29705213 -1.38903267 1.62053812 0 0 Z " fill="#E61C27" transform="translate(185,121)"/>
<path d="M0 0 C0.78375 0.04125 1.5675 0.0825 2.375 0.125 C2.375 1.775 2.375 3.425 2.375 5.125 C4.685 5.125 6.995 5.125 9.375 5.125 C9.375 7.435 9.375 9.745 9.375 12.125 C7.395 12.125 5.415 12.125 3.375 12.125 C3.045 13.775 2.715 15.425 2.375 17.125 C-2.375 16.375 -2.375 16.375 -4.625 14.125 C-4.890625 11.375 -4.890625 11.375 -4.875 8.125 C-4.88015625 7.0525 -4.8853125 5.98 -4.890625 4.875 C-4.53190019 1.16114314 -3.77149959 0.17959522 0 0 Z " fill="#F7F8F7" transform="translate(169.625,171.875)"/>
<path d="M0 0 C2.5625 0.375 2.5625 0.375 4.375 1.875 C6.04055896 5.38143992 6.10786841 8.60224596 5.5625 12.375 C4.375 15.375 4.375 15.375 2.5625 17.375 C0 17.8125 0 17.8125 -2.4375 17.375 C-4.4375 15.375 -4.4375 15.375 -4.703125 12.40625 C-4.69796875 11.2409375 -4.6928125 10.075625 -4.6875 8.875 C-4.69265625 7.7096875 -4.6978125 6.544375 -4.703125 5.34375 C-4.37057061 1.62696568 -3.74079981 0.57550766 0 0 Z " fill="#FEE6E8" transform="translate(189.4375,171.625)"/>
<path d="M0 0 C0.87269531 -0.02578125 1.74539062 -0.0515625 2.64453125 -0.078125 C5.65085545 0.3097878 6.85509714 1.39190129 9.1875 3.25 C10.1775 3.25 11.1675 3.25 12.1875 3.25 C12.1875 10.84 12.1875 18.43 12.1875 26.25 C13.5075 26.58 14.8275 26.91 16.1875 27.25 C11.5675 27.25 6.9475 27.25 2.1875 27.25 C3.5075 26.59 4.8275 25.93 6.1875 25.25 C7.47981642 22.20800528 7.47981642 22.20800528 8.1875 19.25 C6.8675 19.25 5.5475 19.25 4.1875 19.25 C3.8575 20.57 3.5275 21.89 3.1875 23.25 C2.5275 22.92 1.8675 22.59 1.1875 22.25 C1.5175 20.93 1.8475 19.61 2.1875 18.25 C5.55291838 17.16825838 6.48597322 17.32461831 10.1875 18.25 C10.1875 13.96 10.1875 9.67 10.1875 5.25 C9.8575 7.56 9.5275 9.87 9.1875 12.25 C7.2075 12.25 5.2275 12.25 3.1875 12.25 C3.5175 10.93 3.8475 9.61 4.1875 8.25 C4.1875 8.91 4.1875 9.57 4.1875 10.25 C5.5075 10.25 6.8275 10.25 8.1875 10.25 C6.5547149 6.50332798 6.5547149 6.50332798 4.1875 3.25 C-1.68896031 2.78668563 -1.68896031 2.78668563 -6.8125 5.25 C-5.70641104 0.35160603 -5.03439381 0.08845201 0 0 Z " fill="#F7D2D6" transform="translate(127.8125,165.75)"/>
<path d="M0 0 C3.96 0 7.92 0 12 0 C12 0.99 12 1.98 12 3 C12.66 3 13.32 3 14 3 C14 3.99 14 4.98 14 6 C14.66 6 15.32 6 16 6 C16.99 7.485 16.99 7.485 18 9 C21.06556598 9.73343428 21.06556598 9.73343428 24 10 C24 10.99 24 11.98 24 13 C21.36 13 18.72 13 16 13 C16 13.99 16 14.98 16 16 C14.68 15.34 13.36 14.68 12 14 C12.66 14 13.32 14 14 14 C14 13.34 14 12.68 14 12 C12.68 12.33 11.36 12.66 10 13 C10 10.36 10 7.72 10 5 C6.7 5 3.4 5 0 5 C0 3.35 0 1.7 0 0 Z " fill="#F9F1EF" transform="translate(106,183)"/>
<path d="M0 0 C2.11434065 3.17151097 3.01955937 5.86432861 4.125 9.5 C4.47820312 10.6446875 4.83140625 11.789375 5.1953125 12.96875 C6 16 6 16 6 19 C6.66 19 7.32 19 8 19 C9.74162847 12.68369407 11.43913649 6.36352045 13 0 C13.66 0 14.32 0 15 0 C15 6.27 15 12.54 15 19 C15.99 19.33 16.98 19.66 18 20 C16.68 20 15.36 20 14 20 C14 18.68 14 17.36 14 16 C13.01 16 12.02 16 11 16 C11 16.99 11 17.98 11 19 C5.25 20.125 5.25 20.125 3 19 C2.375 16.4375 2.375 16.4375 2 14 C1.34 14 0.68 14 0 14 C0 9.38 0 4.76 0 0 Z " fill="#F1BEBE" transform="translate(207,173)"/>
<path d="M0 0 C0.66 0.33 1.32 0.66 2 1 C2 1.66 2 2.32 2 3 C3.32 3.66 4.64 4.32 6 5 C6 5.66 6 6.32 6 7 C8.31 5.35 10.62 3.7 13 2 C13.33 2.99 13.66 3.98 14 5 C13.67 5.66 13.34 6.32 13 7 C10.4375 7.625 10.4375 7.625 8 8 C8.33 8.99 8.66 9.98 9 11 C8.34 11 7.68 11 7 11 C7 11.66 7 12.32 7 13 C5.68 13.33 4.36 13.66 3 14 C3 14.66 3 15.32 3 16 C5.475 16.99 5.475 16.99 8 18 C8 18.33 8 18.66 8 19 C6.02 19 4.04 19 2 19 C1.34 21.97 0.68 24.94 0 28 C-0.33 28 -0.66 28 -1 28 C-1.33 25.69 -1.66 23.38 -2 21 C-1.34 21 -0.68 21 0 21 C-0.165 20.46375 -0.33 19.9275 -0.5 19.375 C-1.11143426 16.47068727 -1.25733789 13.95938577 -1 11 C-0.01 10.34 0.98 9.68 2 9 C2.72965366 6.43717258 2.72965366 6.43717258 3 4 C2.34 4 1.68 4 1 4 C0.67 2.68 0.34 1.36 0 0 Z " fill="#F9E8EC" transform="translate(217,149)"/>
<path d="M0 0 C1.65 0 3.3 0 5 0 C8.23376436 7.76103446 10.05023135 15.84462249 12 24 C10.68 24 9.36 24 8 24 C7.34 22.35 6.68 20.7 6 19 C3.69 18.67 1.38 18.34 -1 18 C-0.67 17.34 -0.34 16.68 0 16 C1.65 16 3.3 16 5 16 C4.67 15.113125 4.34 14.22625 4 13.3125 C3.08777857 10.29076653 2.81669042 8.11626294 3 5 C2.01 5 1.02 5 0 5 C0 3.35 0 1.7 0 0 Z " fill="#141414" transform="translate(257,168)"/>
<path d="M0 0 C0.66 0.33 1.32 0.66 2 1 C-1.27546798 4.51601016 -4.55345722 8.02959785 -7.8359375 11.5390625 C-10.68523498 14.58654837 -13.52161652 17.64547924 -16.3515625 20.7109375 C-17.77591091 22.24491309 -19.20038716 23.77876998 -20.625 25.3125 C-21.29917969 26.04718506 -21.97335938 26.78187012 -22.66796875 27.53881836 C-23.30605469 28.22339111 -23.94414062 28.90796387 -24.6015625 29.61328125 C-25.16182129 30.21954346 -25.72208008 30.82580566 -26.29931641 31.45043945 C-28.09008034 33.08207579 -29.79229729 34.02640371 -32 35 C-33.37562854 33.71034824 -34.70766393 32.37310707 -36 31 C-36 30.34 -36 29.68 -36 29 C-35.01 29 -34.02 29 -33 29 C-33 28.01 -33 27.02 -33 26 C-32.01 26 -31.02 26 -30 26 C-29.67 26.66 -29.34 27.32 -29 28 C-28.01 28.33 -27.02 28.66 -26 29 C-25.67 28.01 -25.34 27.02 -25 26 C-24.34 26 -23.68 26 -23 26 C-22.79375 25.46375 -22.5875 24.9275 -22.375 24.375 C-20.74725089 21.56343335 -18.74106606 19.72301298 -16.33984375 17.5625 C-14.78224828 15.74606213 -14.40722861 14.33276635 -14 12 C-13.01 12 -12.02 12 -11 12 C-10.67 11.34 -10.34 10.68 -10 10 C-9.34 10 -8.68 10 -8 10 C-7.690625 9.195625 -7.690625 9.195625 -7.375 8.375 C-5.42003056 4.9982346 -2.81776305 2.69525161 0 0 Z " fill="#B4232B" transform="translate(255,121)"/>
<path d="M0 0 C0.33 0.99 0.66 1.98 1 3 C-0.98 4.98 -2.96 6.96 -5 9 C-4.04578192 10.14926266 -3.08647955 11.29430541 -2.125 12.4375 C-1.32449219 13.39462891 -1.32449219 13.39462891 -0.5078125 14.37109375 C0.9222757 16.10805004 0.9222757 16.10805004 3 17 C3 17.66 3 18.32 3 19 C4.32 19 5.64 19 7 19 C7.33 20.32 7.66 21.64 8 23 C8.99 23 9.98 23 11 23 C11 24.65 11 26.3 11 28 C11.66 28 12.32 28 13 28 C13.33 28.66 13.66 29.32 14 30 C14.99 30 15.98 30 17 30 C17.495 32.475 17.495 32.475 18 35 C14.60742332 34.43214382 13.25961103 33.54037917 11.125 30.875 C7.42339484 26.43307381 3.51761091 22.21501537 -0.4375 18 C-1.0773584 17.31663574 -1.7172168 16.63327148 -2.37646484 15.92919922 C-3.91654027 14.28509276 -5.45771088 12.64202959 -7 11 C-8.65 11.66 -10.3 12.32 -12 13 C-11.9071875 11.824375 -11.9071875 11.824375 -11.8125 10.625 C-11.874375 9.75875 -11.93625 8.8925 -12 8 C-12.99 7.34 -13.98 6.68 -15 6 C-14.67 5.01 -14.34 4.02 -14 3 C-12.35 4.65 -10.7 6.3 -9 8 C-4.7257442 6.4169423 -2.73468206 3.49431596 0 0 Z " fill="#B52F37" transform="translate(206,61)"/>
<path d="M0 0 C0.66 0.33 1.32 0.66 2 1 C1.98839844 1.74765625 1.97679687 2.4953125 1.96484375 3.265625 C1.95582031 4.25046875 1.94679687 5.2353125 1.9375 6.25 C1.92589844 7.22453125 1.91429687 8.1990625 1.90234375 9.203125 C1.98804423 11.65758678 2.29293934 13.66168914 3 16 C3.9590625 16.2165625 3.9590625 16.2165625 4.9375 16.4375 C7 17 7 17 8 18 C12.66478085 18.42407099 15.18464006 17.69319525 19 15 C18.67 16.98 18.34 18.96 18 21 C16.02 20.67 14.04 20.34 12 20 C12 20.66 12 21.32 12 22 C4.61538462 23.35384615 4.61538462 23.35384615 1.5 21.5625 C1.005 21.046875 0.51 20.53125 0 20 C0.66 20 1.32 20 2 20 C2 19.34 2 18.68 2 18 C0.68 18.33 -0.64 18.66 -2 19 C-1.8595017 16.2079699 -1.71284617 13.41650204 -1.5625 10.625 C-1.52318359 9.8309375 -1.48386719 9.036875 -1.44335938 8.21875 C-1.11328125 2.2265625 -1.11328125 2.2265625 0 0 Z " fill="#FAF2ED" transform="translate(158,174)"/>
<path d="M0 0 C1.32 0 2.64 0 4 0 C4 3.63 4 7.26 4 11 C6.64 11 9.28 11 12 11 C12 11.66 12 12.32 12 13 C9.36 13 6.72 13 4 13 C4 16.63 4 20.26 4 24 C2.68 24 1.36 24 0 24 C0 16.08 0 8.16 0 0 Z " fill="#C32D3E" transform="translate(140,168)"/>
<path d="M0 0 C3 0 3 0 4.7890625 1.6796875 C5.39492187 2.40414062 6.00078125 3.12859375 6.625 3.875 C7.54152344 4.95394531 7.54152344 4.95394531 8.4765625 6.0546875 C10 8 10 8 11 10 C10.29875 9.89300781 9.5975 9.78601562 8.875 9.67578125 C2.64062306 8.88801351 -2.52221113 8.564997 -8 12 C-10.22816986 14.53442406 -10.22816986 14.53442406 -12 17 C-14.109375 17.6484375 -14.109375 17.6484375 -16 18 C-15.62488281 17.56429687 -15.24976563 17.12859375 -14.86328125 16.6796875 C-14.35152344 16.08414063 -13.83976563 15.48859375 -13.3125 14.875 C-12.76722656 14.24207031 -12.22195312 13.60914063 -11.66015625 12.95703125 C-10.1557467 11.18359787 -8.70207646 9.37867921 -7.25 7.5625 C-6.5075 6.716875 -5.765 5.87125 -5 5 C-4.34 5 -3.68 5 -3 5 C-2.690625 4.360625 -2.38125 3.72125 -2.0625 3.0625 C-1 1 -1 1 0 0 Z " fill="#D82228" transform="translate(223,43)"/>
<path d="M0 0 C0.81791016 0.34224609 0.81791016 0.34224609 1.65234375 0.69140625 C7.62158324 2.96685993 11.71559582 3.09727692 18 2 C18 2.33 18 2.66 18 3 C15.69 3.33 13.38 3.66 11 4 C9.21110735 7.839402 8.75377588 10.83970224 8.8125 15.0625 C8.81894531 16.08472656 8.82539063 17.10695312 8.83203125 18.16015625 C8.97638419 20.60072799 9.30107793 22.66839596 10 25 C9.34 25 8.68 25 8 25 C5.97441119 21.65060119 5.78261013 19.13037449 5.875 15.25 C5.89304688 14.26515625 5.91109375 13.2803125 5.9296875 12.265625 C5.95289063 11.51796875 5.97609375 10.7703125 6 10 C3.94077598 12.05922402 4.58572421 16.21708124 4.4375 19.0625 C4.39431641 19.82111328 4.35113281 20.57972656 4.30664062 21.36132812 C4.20026367 23.24065438 4.09960066 25.12030244 4 27 C3.67 27 3.34 27 3 27 C3 19.41 3 11.82 3 4 C1.68 4 0.36 4 -1 4 C-0.67 2.68 -0.34 1.36 0 0 Z " fill="#F1C9CB" transform="translate(153,165)"/>
<path d="M0 0 C1.32 0 2.64 0 4 0 C2.12652068 4.81751825 2.12652068 4.81751825 0.78125 6.7578125 C-0.4266601 10.22451447 0.96669608 12.32405482 2.375 15.625 C5 21.87165775 5 21.87165775 5 24 C3.35 23.67 1.7 23.34 0 23 C-0.99 19.7 -1.98 16.4 -3 13 C-3.66 13 -4.32 13 -5 13 C-5.66796875 11.296875 -5.66796875 11.296875 -6 9 C-4.92578125 6.640625 -4.92578125 6.640625 -3.3125 4.25 C-2.53326172 3.05117187 -2.53326172 3.05117187 -1.73828125 1.828125 C-1.16464844 1.22484375 -0.59101563 0.6215625 0 0 Z " fill="#171717" transform="translate(307,168)"/>
<path d="M0 0 C7.66742597 5.96583144 7.66742597 5.96583144 9 11 C6.03 10.505 6.03 10.505 3 10 C2.51789063 10.6496875 2.03578125 11.299375 1.5390625 11.96875 C0.90742188 12.8040625 0.27578125 13.639375 -0.375 14.5 C-1.00148437 15.3353125 -1.62796875 16.170625 -2.2734375 17.03125 C-2.84320313 17.6809375 -3.41296875 18.330625 -4 19 C-4.66 19 -5.32 19 -6 19 C-6.1875 16.6875 -6.1875 16.6875 -6 14 C-5 13 -4 12 -3 11 C-3.22757731 8.83700789 -3.22757731 8.83700789 -4 7 C-4.66 7 -5.32 7 -6 7 C-6 5.35 -6 3.7 -6 2 C-3.5 3.375 -3.5 3.375 -1 5 C-1 5.66 -1 6.32 -1 7 C-0.34 7 0.32 7 1 7 C0.67 4.69 0.34 2.38 0 0 Z " fill="#DA2326" transform="translate(182,112)"/>
<path d="M0 0 C0.33 1.32 0.66 2.64 1 4 C-0.52994792 5.20442708 -2.05989583 6.40885417 -3.58984375 7.61328125 C-5.27155077 9.05683091 -5.27155077 9.05683091 -6 12 C-6.66 12 -7.32 12 -8 12 C-8.33 13.65 -8.66 15.3 -9 17 C-10.32 17 -11.64 17 -13 17 C-13.75427297 21.97906259 -13.75427297 21.97906259 -14 27 C-11.525 27.99 -11.525 27.99 -9 29 C-9.33 29.99 -9.66 30.98 -10 32 C-9.01 31.67 -8.02 31.34 -7 31 C-7 32.65 -7 34.3 -7 36 C-11.15612825 32.60271539 -14.70599337 29.27000859 -18 25 C-18.66 24.67 -19.32 24.34 -20 24 C-19.52923261 19.76309353 -16.95058791 17.75573777 -14 15 C-9.07863994 10.18562603 -4.28682366 5.39310074 0 0 Z " fill="#F9D6D2" transform="translate(191,77)"/>
<path d="M0 0 C5.93085886 4.57523398 10.93956612 9.94680081 16 15.4375 C16.50789063 15.98470703 17.01578125 16.53191406 17.5390625 17.09570312 C20.81118342 20.64050079 23.93990673 24.27051133 27 28 C26.34 28.33 25.68 28.66 25 29 C25 28.34 25 27.68 25 27 C23.35 26.67 21.7 26.34 20 26 C20 24.68 20 23.36 20 22 C18.68 21.34 17.36 20.68 16 20 C16 19.34 16 18.68 16 18 C15.01 17.67 14.02 17.34 13 17 C13 16.34 13 15.68 13 15 C12.236875 14.87625 11.47375 14.7525 10.6875 14.625 C8 14 8 14 5 12 C4.67 11.01 4.34 10.02 4 9 C1.98491642 8.26676204 1.98491642 8.26676204 0 8 C0 5.36 0 2.72 0 0 Z " fill="#D1242A" transform="translate(243,63)"/>
<path d="M0 0 C2.97 0 5.94 0 9 0 C8.67 0.66 8.34 1.32 8 2 C6.35 2 4.7 2 3 2 C3 4.64 3 7.28 3 10 C3.99 10.33 4.98 10.66 6 11 C5.01 11.33 4.02 11.66 3 12 C3 14.64 3 17.28 3 20 C5.64 20 8.28 20 11 20 C11 20.99 11 21.98 11 23 C7.37 23 3.74 23 0 23 C0 15.41 0 7.82 0 0 Z " fill="#0F0E0D" transform="translate(232,169)"/>
<path d="M0 0 C0.99 0.66 1.98 1.32 3 2 C3 2.99 3 3.98 3 5 C1.34808509 6.35156675 -0.32294092 7.679762 -2 9 C-3.87254402 11.02122241 -5.66372344 13.09705859 -7.44921875 15.1953125 C-9 17 -9 17 -11 19 C-13.125 18.625 -13.125 18.625 -15 18 C-14.11229317 13.20638314 -11.75358748 9.12798956 -8 6 C-7.01 5.67 -6.02 5.34 -5 5 C-5 5.66 -5 6.32 -5 7 C-4.34 7 -3.68 7 -3 7 C-3 6.01 -3 5.02 -3 4 C-2.01 3.34 -1.02 2.68 0 2 C0 1.34 0 0.68 0 0 Z " fill="#EEFCF6" transform="translate(222,96)"/>
<path d="M0 0 C0.99 0 1.98 0 3 0 C3 7.92 3 15.84 3 24 C-2 23 -2 23 -3.8125 20.625 C-5 18 -5 18 -5 15 C-4.01 14.67 -3.02 14.34 -2 14 C-1.67 14.33 -1.34 14.66 -1 15 C-0.67 10.05 -0.34 5.1 0 0 Z " fill="#151515" transform="translate(286,168)"/>
<path d="M0 0 C0.66 0 1.32 0 2 0 C2 0.66 2 1.32 2 2 C2.66 2 3.32 2 4 2 C5.4453125 3.46875 5.4453125 3.46875 7.125 5.5 C10.35005442 9.31450765 13.78161963 12.79602023 17.3984375 16.23828125 C19 18 19 18 20 21 C19.4225 20.814375 18.845 20.62875 18.25 20.4375 C15.79307475 19.95976454 14.35602466 20.24270636 12 21 C10.5 19.375 10.5 19.375 9 17 C9.04125 16.01 9.0825 15.02 9.125 14 C9.3405918 10.79938288 9.3405918 10.79938288 6.625 8.75 C5.75875 8.1725 4.8925 7.595 4 7 C3.34 6.34 2.68 5.68 2 5 C-1.08347826 4.83318891 -1.08347826 4.83318891 -4 5 C-2.71937515 3.2925002 -1.38232443 1.62626404 0 0 Z " fill="#D0252C" transform="translate(171,43)"/>
<path d="M0 0 C0.99 0.66 1.98 1.32 3 2 C2.43152344 2.556875 1.86304688 3.11375 1.27734375 3.6875 C-2.41810304 7.33976127 -6.06024483 10.98659623 -9.4375 14.9375 C-13.68645819 19.89295943 -18.35075616 24.42390859 -23 29 C-24.00108755 29.99891127 -25.00162206 30.99838057 -26 32 C-25.91548357 29.12644151 -25.45477932 27.45701411 -23.41015625 25.40234375 C-22.1552403 24.3578636 -20.88324699 23.33350534 -19.59375 22.33203125 C-17.86886375 21.07063984 -17.86886375 21.07063984 -17 19 C-16.34 19 -15.68 19 -15 19 C-14.34 16.36 -13.68 13.72 -13 11 C-11.35 11.33 -9.7 11.66 -8 12 C-7.9175 11.443125 -7.835 10.88625 -7.75 10.3125 C-6.76104459 7.26322081 -5.15242534 5.34810037 -3 3 C-2.34 3 -1.68 3 -1 3 C-0.67 2.01 -0.34 1.02 0 0 Z " fill="#FCE0E0" transform="translate(168,42)"/>
<path d="M0 0 C1 3 1 3 0 5.9375 C-1.96351665 8.94413486 -2.55712207 9.50044817 -5.5625 11 C-9.21852617 12.68613112 -9.21852617 12.68613112 -10.4375 16.125 C-11.06400387 18.83887915 -11.06400387 18.83887915 -11 21 C-10.01 21.33 -9.02 21.66 -8 22 C-6.60287726 23.95597184 -5.26220093 25.95436401 -4 28 C-4.33 28.66 -4.66 29.32 -5 30 C-5.8353125 28.9171875 -5.8353125 28.9171875 -6.6875 27.8125 C-8.95385929 24.9407261 -8.95385929 24.9407261 -11.6875 22.4375 C-13.96770929 20.03403615 -14.73739631 19.20620786 -15 16 C-13.8125 14.359375 -13.8125 14.359375 -12 12.75 C-8.54660397 9.54624706 -5.45495422 6.16965535 -2.3828125 2.6015625 C-1.61429517 1.71147181 -0.83152881 0.83152881 0 0 Z " fill="#B03335" transform="translate(134,82)"/>
<path d="M0 0 C2.875 -0.125 2.875 -0.125 6 0 C8 2 8 2 8 5 C8.226875 4.360625 8.45375 3.72125 8.6875 3.0625 C10 1 10 1 12.625 0.25 C13.40875 0.1675 14.1925 0.085 15 0 C14.34 0.70125 13.68 1.4025 13 2.125 C9.46238524 7.25703268 10.70750273 14.06880536 11 20 C10.34 20 9.68 20 9 20 C9 19.01 9 18.02 9 17 C8.34 17 7.68 17 7 17 C6.67 18.32 6.34 19.64 6 21 C6 19.68 6 18.36 6 17 C5.01 17 4.02 17 3 17 C2.67 17.66 2.34 18.32 2 19 C2 18.01 2 17.02 2 16 C3.98 16 5.96 16 8 16 C8 13.69 8 11.38 8 9 C5.69 9 3.38 9 1 9 C1.33 7.68 1.66 6.36 2 5 C2.33 5.99 2.66 6.98 3 8 C3.99 8 4.98 8 6 8 C5.89386164 5.54775306 5.89386164 5.54775306 5 3 C2.52363988 1.62533375 2.52363988 1.62533375 0 1 C0 0.67 0 0.34 0 0 Z " fill="#F3C3C6" transform="translate(171,168)"/>
<path d="M0 0 C0.33 0.66 0.66 1.32 1 2 C1.66 2 2.32 2 3 2 C2.979375 2.9075 2.95875 3.815 2.9375 4.75 C2.84978977 7.84063578 2.84978977 7.84063578 3.625 10.0625 C4.17172914 12.88726723 3.31788041 14.49602722 2 17 C1.01 17.66 0.02 18.32 -1 19 C-1.66 18.01 -2.32 17.02 -3 16 C-4.32 16.99 -5.64 17.98 -7 19 C-7.66 18.34 -8.32 17.68 -9 17 C-8.33871094 16.39671875 -7.67742187 15.7934375 -6.99609375 15.171875 C-6.15175781 14.37265625 -5.30742187 13.5734375 -4.4375 12.75 C-3.59058594 11.96109375 -2.74367188 11.1721875 -1.87109375 10.359375 C0.26244129 8.21612865 0.26244129 8.21612865 -0.16015625 5.828125 C-0.75117787 4.54162212 -1.36684975 3.26630051 -2 2 C-1.34 2 -0.68 2 0 2 C0 1.34 0 0.68 0 0 Z " fill="#FBF7F7" transform="translate(276,93)"/>
<path d="M0 0 C2.31 0 4.62 0 7 0 C7 0.33 7 0.66 7 1 C5.02 1 3.04 1 1 1 C1 8.59 1 16.18 1 24 C0.67 24 0.34 24 0 24 C-0.33 21.36 -0.66 18.72 -1 16 C-1.66 16.99 -2.32 17.98 -3 19 C-3.66 19 -4.32 19 -5 19 C-4.96519531 18.28714844 -4.93039063 17.57429688 -4.89453125 16.83984375 C-4.72068154 10.68887544 -5.09535848 6.44620285 -8 1 C-6.68 1.33 -5.36 1.66 -4 2 C-3.67 3.98 -3.34 5.96 -3 8 C-2.01 8 -1.02 8 0 8 C0 5.36 0 2.72 0 0 Z " fill="#F1B9C3" transform="translate(203,168)"/>
<path d="M0 0 C0.33 0 0.66 0 1 0 C1.04898438 0.68707031 1.09796875 1.37414062 1.1484375 2.08203125 C1.22320312 2.98308594 1.29796875 3.88414062 1.375 4.8125 C1.44460937 5.70582031 1.51421875 6.59914062 1.5859375 7.51953125 C1.86645036 10.24398499 1.86645036 10.24398499 4 13 C6.56282742 13.72965366 6.56282742 13.72965366 9 14 C9.33 12.68 9.66 11.36 10 10 C11.32 10 12.64 10 14 10 C12.546875 15.5703125 12.546875 15.5703125 10.25 17.375 C7.30157427 18.19400715 5.04469401 18.38868434 2 18 C0.296875 16.4296875 0.296875 16.4296875 -1 14 C-1.07421875 10.546875 -1.07421875 10.546875 -0.6875 6.75 C-0.56761719 5.48671875 -0.44773437 4.2234375 -0.32421875 2.921875 C-0.21722656 1.95765625 -0.11023438 0.9934375 0 0 Z " fill="#BA3344" transform="translate(122,175)"/>
<path d="M0 0 C0.66 0.33 1.32 0.66 2 1 C-4.92015399 8.74148539 -11.9438187 16.38266723 -19 24 C-22.71860179 22.46126823 -23.35633541 21.52488612 -26 18 C-22.7 18.33 -19.4 18.66 -16 19 C-15.34 17.68 -14.68 16.36 -14 15 C-12.66666667 13.66666667 -11.33333333 12.33333333 -10 11 C-9.71382812 10.37609375 -9.42765625 9.7521875 -9.1328125 9.109375 C-7.75378464 6.54153003 -6.10156636 5.11744275 -3.875 3.25 C-3.15054688 2.63640625 -2.42609375 2.0228125 -1.6796875 1.390625 C-1.12539062 0.93171875 -0.57109375 0.4728125 0 0 Z " fill="#B1262F" transform="translate(192,132)"/>
<path d="M0 0 C1.65 0 3.3 0 5 0 C5 7.59 5 15.18 5 23 C4.01 23 3.02 23 2 23 C2 16.73 2 10.46 2 4 C1.34 4 0.68 4 0 4 C0 2.68 0 1.36 0 0 Z " fill="#C21D35" transform="translate(220,169)"/>
<path d="M0 0 C0.33 0.99 0.66 1.98 1 3 C0.525625 3.391875 0.05125 3.78375 -0.4375 4.1875 C-2.35179633 6.40808374 -2.61266988 8.13375709 -3 11 C-2.34 11.33 -1.68 11.66 -1 12 C-1.72316406 12.61488281 -1.72316406 12.61488281 -2.4609375 13.2421875 C-3.09257812 13.78101562 -3.72421875 14.31984375 -4.375 14.875 C-5.00148437 15.40867187 -5.62796875 15.94234375 -6.2734375 16.4921875 C-7.55836651 17.61432007 -8.79371975 18.79371975 -10 20 C-10 19.34 -10 18.68 -10 18 C-10.66 18 -11.32 18 -12 18 C-10.97265251 11.83591508 -8.43742067 8.99027635 -3.875 4.796875 C-1.80623139 2.94435508 -1.80623139 2.94435508 0 0 Z " fill="#E51C2B" transform="translate(145,70)"/>
<path d="M0 0 C0.66 0.66 1.32 1.32 2 2 C2.86625 2.185625 3.7325 2.37125 4.625 2.5625 C9.71861822 4.73200406 12.56536068 8.76336369 16 13 C12.65284689 14.1157177 11.28928478 14.1807689 8 13 C6.6875 10.4375 6.6875 10.4375 6 8 C5.34 8 4.68 8 4 8 C4 7.34 4 6.68 4 6 C3.01 5.67 2.02 5.34 1 5 C0.67 3.35 0.34 1.7 0 0 Z " fill="#F2FCF6" transform="translate(128,114)"/>
<path d="M0 0 C0.66 0 1.32 0 2 0 C2 8.25 2 16.5 2 25 C-0.16969145 20.66061709 -0.21326104 18.51609592 -0.125 13.75 C-0.10695313 12.48671875 -0.08890625 11.2234375 -0.0703125 9.921875 C-0.04710938 8.95765625 -0.02390625 7.9934375 0 7 C-1.65 7 -3.3 7 -5 7 C-5 12.94 -5 18.88 -5 25 C-5.66 24.67 -6.32 24.34 -7 24 C-6.67 17.4 -6.34 10.8 -6 4 C-4.02 4 -2.04 4 0 4 C0 2.68 0 1.36 0 0 Z " fill="#FCE8E7" transform="translate(99,168)"/>
<path d="M0 0 C0.33 0 0.66 0 1 0 C1.1953125 2.01822917 1.390625 4.03645833 1.5859375 6.0546875 C1.86374749 8.22668245 1.86374749 8.22668245 4 10 C6.57540213 9.83492354 6.57540213 9.83492354 9 9 C9.33 8.34 9.66 7.68 10 7 C10.99 7 11.98 7 13 7 C12.67842796 9.97454134 12.37860258 11.59335278 10.3125 13.8125 C7.34331109 15.33721863 5.29521559 15.35817561 2 15 C0 13 0 13 -0.1953125 9.9609375 C-0.17210937 8.77757812 -0.14890625 7.59421875 -0.125 6.375 C-0.10695312 5.18648437 -0.08890625 3.99796875 -0.0703125 2.7734375 C-0.04710937 1.85820312 -0.02390625 0.94296875 0 0 Z " fill="#C84554" transform="translate(164,178)"/>
<path d="M0 0 C1.62490954 -0.02698189 3.24994633 -0.04638757 4.875 -0.0625 C5.77992187 -0.07410156 6.68484375 -0.08570313 7.6171875 -0.09765625 C10 0 10 0 12 1 C12 3.64 12 6.28 12 9 C11.01 8.67 10.02 8.34 9 8 C9.66 8 10.32 8 11 8 C11 7.34 11 6.68 11 6 C7.37 5.67 3.74 5.34 0 5 C0 3.35 0 1.7 0 0 Z " fill="#FBF5ED" transform="translate(106,173)"/>
<path d="M0 0 C0.99 0 1.98 0 3 0 C3 6.6 3 13.2 3 20 C2.01 20 1.02 20 0 20 C0 13.4 0 6.8 0 0 Z " fill="#C51C38" transform="translate(89,172)"/>
<path d="M0 0 C3.375 -0.125 3.375 -0.125 7 0 C7.66 0.66 8.32 1.32 9 2 C8.46428571 5.53571429 8.46428571 5.53571429 7 7 C4.66702567 7.04092937 2.33294775 7.04241723 0 7 C0 4.69 0 2.38 0 0 Z " fill="#F3F2F1" transform="translate(235,182)"/>
<path d="M0 0 C1.65 0 3.3 0 5 0 C5.33 0.66 5.66 1.32 6 2 C7.65 2 9.3 2 11 2 C13.27678571 8.96428571 13.27678571 8.96428571 12 13 C11.38511719 12.31292969 10.77023437 11.62585938 10.13671875 10.91796875 C9.32847656 10.01691406 8.52023437 9.11585937 7.6875 8.1875 C6.88699219 7.29417969 6.08648437 6.40085937 5.26171875 5.48046875 C3.54775419 3.60073214 1.82122396 1.77407253 0 0 Z " fill="#F9DDDC" transform="translate(250,70)"/>
<path d="M0 0 C0.99 0 1.98 0 3 0 C3 7.59 3 15.18 3 23 C2.01 23 1.02 23 0 23 C0 19.7 0 16.4 0 13 C0.66 13 1.32 13 2 13 C2 10.69 2 8.38 2 6 C1.34 6 0.68 6 0 6 C0 4.02 0 2.04 0 0 Z " fill="#B32337" transform="translate(153,169)"/>
<path d="M0 0 C0.78375 0.04125 1.5675 0.0825 2.375 0.125 C1.715 0.785 1.055 1.445 0.375 2.125 C-2.30405902 6.14358853 -1.94682663 8.37805716 -1.625 13.125 C-0.305 13.455 1.015 13.785 2.375 14.125 C2.375 15.115 2.375 16.105 2.375 17.125 C-2.375 16.375 -2.375 16.375 -4.625 14.125 C-4.890625 11.375 -4.890625 11.375 -4.875 8.125 C-4.88015625 7.0525 -4.8853125 5.98 -4.890625 4.875 C-4.53190019 1.16114314 -3.77149959 0.17959522 0 0 Z " fill="#FED0D5" transform="translate(169.625,171.875)"/>
<path d="M0 0 C1.32 0 2.64 0 4 0 C4.33 1.32 4.66 2.64 5 4 C5.99 4 6.98 4 8 4 C8 5.65 8 7.3 8 9 C8.66 9 9.32 9 10 9 C10.33 9.66 10.66 10.32 11 11 C11.99 11 12.98 11 14 11 C14.33 12.65 14.66 14.3 15 16 C11.32260897 15.44477028 9.89992864 14.14656475 7.5625 11.3125 C6.6653125 10.23935547 6.6653125 10.23935547 5.75 9.14453125 C5.1725 8.43683594 4.595 7.72914062 4 7 C3.02132047 5.83292466 2.04222061 4.66620152 1.0625 3.5 C0.0415625 2.2625 0.0415625 2.2625 -1 1 C-0.67 0.67 -0.34 0.34 0 0 Z " fill="#C42E3B" transform="translate(209,80)"/>
<path d="M0 0 C0.87269531 -0.02578125 1.74539062 -0.0515625 2.64453125 -0.078125 C5.65542237 0.31037708 6.91450932 1.29749607 9.1875 3.25 C9.8475 3.58 10.5075 3.91 11.1875 4.25 C10.8575 4.58 10.5275 4.91 10.1875 5.25 C9.81989269 7.57817964 9.48508419 9.9118385 9.1875 12.25 C7.2075 12.25 5.2275 12.25 3.1875 12.25 C3.5175 10.93 3.8475 9.61 4.1875 8.25 C4.1875 8.91 4.1875 9.57 4.1875 10.25 C5.5075 10.25 6.8275 10.25 8.1875 10.25 C6.5547149 6.50332798 6.5547149 6.50332798 4.1875 3.25 C-1.68896031 2.78668563 -1.68896031 2.78668563 -6.8125 5.25 C-5.70641104 0.35160603 -5.03439381 0.08845201 0 0 Z " fill="#FADADD" transform="translate(127.8125,165.75)"/>
<path d="M0 0 C0.99 0.66 1.98 1.32 3 2 C2.54733112 6.29532467 -0.20542375 8.50615585 -3.1875 11.3125 C-7.37585976 15.36498434 -11.29763021 19.49711783 -15 24 C-15.33 23.01 -15.66 22.02 -16 21 C-15.34 21 -14.68 21 -14 21 C-13.938125 20.236875 -13.87625 19.47375 -13.8125 18.6875 C-12.71419861 15.05465693 -11.27584081 14.881866 -8 13 C-6.5248097 11.75155192 -5.08960152 10.45500765 -3.6875 9.125 C-2.99011719 8.46757813 -2.29273438 7.81015625 -1.57421875 7.1328125 C0.33011382 4.55274902 0.32222695 3.13488587 0 0 Z " fill="#A7222D" transform="translate(274,96)"/>
<path d="M0 0 C3.81936528 1.55603771 6.26044438 3.95604931 9 7 C9 7.66 9 8.32 9 9 C8.01 9.33 7.02 9.66 6 10 C4.31295807 8.69254251 2.64639965 7.35827971 1 6 C-2.05270463 5.84188612 -2.05270463 5.84188612 -5 7 C-4.67 6.01 -4.34 5.02 -4 4 C-3.34 4 -2.68 4 -2 4 C-2 3.34 -2 2.68 -2 2 C-1.34 2 -0.68 2 0 2 C0 1.34 0 0.68 0 0 Z " fill="#F3D9D1" transform="translate(197,129)"/>
<path d="M0 0 C0.69609375 0.69867188 1.3921875 1.39734375 2.109375 2.1171875 C4.08556421 4.09477035 6.07691655 6.05556712 8.078125 8.0078125 C9.13546178 9.04682909 10.192753 10.08589205 11.25 11.125 C11.79140625 11.64964844 12.3328125 12.17429687 12.890625 12.71484375 C15.32647988 15.12025044 16.90178135 16.70534405 18 20 C17.34 20 16.68 20 16 20 C16 19.34 16 18.68 16 18 C14.35 17.67 12.7 17.34 11 17 C11 15.68 11 14.36 11 13 C9.68 12.34 8.36 11.68 7 11 C7 10.34 7 9.68 7 9 C6.01 8.67 5.02 8.34 4 8 C3.3125 5.9375 3.3125 5.9375 3 4 C2.01 4 1.02 4 0 4 C0 2.68 0 1.36 0 0 Z " fill="#BF3D49" transform="translate(252,72)"/>
<path d="M0 0 C0.70125 -0.01675781 1.4025 -0.03351563 2.125 -0.05078125 C2.74375 0.06910156 3.3625 0.18898437 4 0.3125 C4.66 1.3025 5.32 2.2925 6 3.3125 C5.01 4.3025 4.02 5.2925 3 6.3125 C2.67 5.9825 2.34 5.6525 2 5.3125 C-1.48880949 5.11867725 -4.60169639 5.53574489 -8 6.3125 C-6.04182345 2.11640739 -4.83232707 0.02664886 0 0 Z " fill="#B62A44" transform="translate(190,167.6875)"/>
<path d="M0 0 C2.97 0.495 2.97 0.495 6 1 C6 1.66 6 2.32 6 3 C6.99 3 7.98 3 9 3 C9.268125 3.969375 9.53625 4.93875 9.8125 5.9375 C10.204375 6.948125 10.59625 7.95875 11 9 C11.99 9.33 12.98 9.66 14 10 C13.34 11.32 12.68 12.64 12 14 C11.443125 13.2575 10.88625 12.515 10.3125 11.75 C8.12339795 8.95380415 8.12339795 8.95380415 5.4375 7 C2.86313021 4.88769658 1.54345553 2.92444207 0 0 Z " fill="#D0313B" transform="translate(138,120)"/>
<path d="M0 0 C1.32 0 2.64 0 4 0 C4 0.99 4 1.98 4 3 C4.99 3.33 5.98 3.66 7 4 C7.33 5.65 7.66 7.3 8 9 C7.01 8.67 6.02 8.34 5 8 C4.67 8.66 4.34 9.32 4 10 C3.67 8.68 3.34 7.36 3 6 C2.67 11.28 2.34 16.56 2 22 C1.67 22 1.34 22 1 22 C0.67 14.74 0.34 7.48 0 0 Z " fill="#C6344B" transform="translate(205,170)"/>
<path d="M0 0 C0.66 0 1.32 0 2 0 C4.35199995 4.5569999 4.62635454 8.98008604 4 14 C2.5 17.0625 2.5 17.0625 1 19 C-0.125 15.25 -0.125 15.25 1 13 C1.06950541 11.45976004 1.08452357 9.91665012 1.0625 8.375 C1.04896484 7.14910156 1.04896484 7.14910156 1.03515625 5.8984375 C1.02355469 5.27195313 1.01195312 4.64546875 1 4 C0.34 4 -0.32 4 -1 4 C-0.67 2.68 -0.34 1.36 0 0 Z " fill="#BB2535" transform="translate(195,171)"/>
<path d="M0 0 C0.66 0.33 1.32 0.66 2 1 C1.67 2.98 1.34 4.96 1 7 C-0.32 7 -1.64 7 -3 7 C-3.20625 7.61875 -3.4125 8.2375 -3.625 8.875 C-5.54775888 11.84653645 -7.66594527 12.13024659 -11 13 C-7.61227103 8.30840284 -4.21814817 3.9700218 0 0 Z " fill="#C7323E" transform="translate(166,48)"/>
<path d="M0 0 C3.2179411 4.82691165 5.55059748 10.17665469 4.6875 16.0625 C4.460625 17.031875 4.23375 18.00125 4 19 C2 16 2 16 2 14 C1.34 14 0.68 14 0 14 C0 9.38 0 4.76 0 0 Z " fill="#FAD1D3" transform="translate(207,173)"/>
<path d="M0 0 C0.33 0.66 0.66 1.32 1 2 C-0.0945149 3.65226769 -1.2009517 5.29664298 -2.3125 6.9375 C-2.92738281 7.85402344 -3.54226562 8.77054688 -4.17578125 9.71484375 C-6 12 -6 12 -9 13 C-10.20882096 15.00016466 -10.20882096 15.00016466 -11 17 C-12.32 16.34 -13.64 15.68 -15 15 C-13.989375 14.175 -12.97875 13.35 -11.9375 12.5 C-7.85858461 9.01921477 -4.4529462 5.08696175 -1 1 C-0.67 0.67 -0.34 0.34 0 0 Z " fill="#F8D2D0" transform="translate(186,141)"/>
<path d="M0 0 C4.29 0 8.58 0 13 0 C13 0.99 13 1.98 13 3 C9.7 3.33 6.4 3.66 3 4 C2.67 4.99 2.34 5.98 2 7 C1.34 7 0.68 7 0 7 C0 4.69 0 2.38 0 0 Z " fill="#B92039" transform="translate(102,169)"/>
<path d="M0 0 C0.66 0 1.32 0 2 0 C3.51162791 11.97674419 3.51162791 11.97674419 1 17 C-1.06640625 17.4140625 -1.06640625 17.4140625 -3.5625 17.625 C-4.38878906 17.69976562 -5.21507812 17.77453125 -6.06640625 17.8515625 C-7.02353516 17.92503906 -7.02353516 17.92503906 -8 18 C-7.01 17.67 -6.02 17.34 -5 17 C-5 16.01 -5 15.02 -5 14 C-4.0409375 13.5978125 -4.0409375 13.5978125 -3.0625 13.1875 C-0.66868314 12.11332248 -0.66868314 12.11332248 0 9 C0.06740865 7.43881572 0.08514456 5.8749748 0.0625 4.3125 C0.05347656 3.50425781 0.04445312 2.69601563 0.03515625 1.86328125 C0.02355469 1.24839844 0.01195312 0.63351563 0 0 Z " fill="#C63E50" transform="translate(194,175)"/>
<path d="M0 0 C0.99 0 1.98 0 3 0 C3.33 0.66 3.66 1.32 4 2 C4.99 2.33 5.98 2.66 7 3 C5.95125002 5.62187494 5.35068687 6.79371361 2.875 8.25 C2.25625 8.4975 1.6375 8.745 1 9 C-0.37562854 7.71034824 -1.70766393 6.37310707 -3 5 C-3 4.34 -3 3.68 -3 3 C-2.01 3 -1.02 3 0 3 C0 2.01 0 1.02 0 0 Z " fill="#C72629" transform="translate(222,147)"/>
<path d="M0 0 C2.31 0 4.62 0 7 0 C7.38218767 1.65614657 7.71395102 3.32457024 8 5 C7 6 7 6 3.4375 6.0625 C2.303125 6.041875 1.16875 6.02125 0 6 C0 4.02 0 2.04 0 0 Z " fill="#EAEEEB" transform="translate(235,172)"/>
<path d="M0 0 C0.66 0.33 1.32 0.66 2 1 C0.38405168 3.04119788 -1.2856382 5.04072937 -3 7 C-3.66 7 -4.32 7 -5 7 C-5.23460937 7.56203125 -5.46921875 8.1240625 -5.7109375 8.703125 C-7.30663 11.54635891 -9.28924543 13.48098127 -11.625 15.75 C-12.44226563 16.54921875 -13.25953125 17.3484375 -14.1015625 18.171875 C-14.72804687 18.77515625 -15.35453125 19.3784375 -16 20 C-16.66 19.34 -17.32 18.68 -18 18 C-16.47005208 16.76302083 -14.94010417 15.52604167 -13.41015625 14.2890625 C-11.86733563 13.0333609 -11.86733563 13.0333609 -11 11 C-10.34 11 -9.68 11 -9 11 C-8.731875 10.360625 -8.46375 9.72125 -8.1875 9.0625 C-7 7 -7 7 -4 6 C-2.90833725 4.06669397 -2.90833725 4.06669397 -2 2 C-1.34 1.34 -0.68 0.68 0 0 Z " fill="#AD252A" transform="translate(192,74)"/>
<path d="M0 0 C3.21524305 1.40844718 5.32183868 3.10344786 7.75 5.625 C8.67039063 6.57246094 8.67039063 6.57246094 9.609375 7.5390625 C10.29773438 8.26222656 10.29773438 8.26222656 11 9 C9.68 9.33 8.36 9.66 7 10 C4 6.25 4 6.25 4 4 C1.03 4.66 -1.94 5.32 -5 6 C-3.35 4.02 -1.7 2.04 0 0 Z " fill="#F3D2CC" transform="translate(197,71)"/>
<path d="M0 0 C0.66 0.66 1.32 1.32 2 2 C-2.66666667 6.66666667 -7.33333333 11.33333333 -12 16 C-12.33 14.68 -12.66 13.36 -13 12 C-9.25 9 -9.25 9 -7 9 C-6.67 7.68 -6.34 6.36 -6 5 C-4.68 4.67 -3.36 4.34 -2 4 C-2 3.34 -2 2.68 -2 2 C-1.34 2 -0.68 2 0 2 C0 1.34 0 0.68 0 0 Z " fill="#FBDEDD" transform="translate(214,50)"/>
<path d="M0 0 C5.28 0 10.56 0 16 0 C16 1.32 16 2.64 16 4 C15.46890625 3.83628906 14.9378125 3.67257813 14.390625 3.50390625 C11.46123236 2.88643623 8.74177064 2.90498075 5.75 2.9375 C4.67234375 2.94652344 3.5946875 2.95554688 2.484375 2.96484375 C1.25460938 2.98224609 1.25460938 2.98224609 0 3 C0 2.01 0 1.02 0 0 Z " fill="#B54454" transform="translate(83,168)"/>
<path d="M0 0 C1.63191925 3.26383851 0.88171297 5.53192899 0 9 C-1.84511261 11.06037574 -3.71201657 12.39354355 -6 14 C-6.66 13.67 -7.32 13.34 -8 13 C-7.01 11.68 -6.02 10.36 -5 9 C-5.66 8.67 -6.32 8.34 -7 8 C-4.69 5.36 -2.38 2.72 0 0 Z " fill="#EFFBF0" transform="translate(266,111)"/>
<path d="M0 0 C1.32 0.99 2.64 1.98 4 3 C3.67 3.99 3.34 4.98 3 6 C0.69 6.33 -1.62 6.66 -4 7 C-4 7.66 -4 8.32 -4 9 C-5.32 8.67 -6.64 8.34 -8 8 C-5.36 5.36 -2.72 2.72 0 0 Z " fill="#CE2F37" transform="translate(154,61)"/>
<path d="M0 0 C2.625 -0.1875 2.625 -0.1875 5 0 C5.33 0.66 5.66 1.32 6 2 C4.68 2 3.36 2 2 2 C2 3.32 2 4.64 2 6 C1.34 6 0.68 6 0 6 C0 8.97 0 11.94 0 15 C-2 13 -2 13 -2.265625 10.72265625 C-2.26046875 9.84480469 -2.2553125 8.96695313 -2.25 8.0625 C-2.25515625 7.18722656 -2.2603125 6.31195313 -2.265625 5.41015625 C-2 3 -2 3 0 0 Z " fill="#FCD3D2" transform="translate(125,172)"/>
<path d="M0 0 C0.66 1.32 1.32 2.64 2 4 C1.01 4 0.02 4 -1 4 C-0.34 6.97 0.32 9.94 1 13 C-0.32 13 -1.64 13 -3 13 C-4.22222222 5.66666667 -4.22222222 5.66666667 -3.1875 2.5625 C-2 1 -2 1 0 0 Z " fill="#EFFEF8" transform="translate(166,153)"/>
<path d="M0 0 C0.66 0.33 1.32 0.66 2 1 C2.09765625 7.15234375 2.09765625 7.15234375 2 9 C1 10 1 10 -1.5625 10.0625 C-2.366875 10.041875 -3.17125 10.02125 -4 10 C-4 8.68 -4 7.36 -4 6 C-2.68 5.34 -1.36 4.68 0 4 C0 2.68 0 1.36 0 0 Z " fill="#F8F5F3" transform="translate(192,178)"/>
<path d="M0 0 C1.32 0.33 2.64 0.66 4 1 C4 2.32 4 3.64 4 5 C2.68 5 1.36 5 0 5 C-0.66 6.65 -1.32 8.3 -2 10 C-2.99 10 -3.98 10 -5 10 C-5 8.68 -5 7.36 -5 6 C-4.01 5.67 -3.02 5.34 -2 5 C-0.78130071 2.49552484 -0.78130071 2.49552484 0 0 Z " fill="#EF1722" transform="translate(181,126)"/>
<path d="M0 0 C3 0 3 0 4.7890625 1.6796875 C5.69785156 2.76636719 5.69785156 2.76636719 6.625 3.875 C7.54152344 4.95394531 7.54152344 4.95394531 8.4765625 6.0546875 C10 8 10 8 11 10 C8.69 9.67 6.38 9.34 4 9 C4 7.35 4 5.7 4 4 C1.69 4 -0.62 4 -3 4 C-1.6875 2 -1.6875 2 0 0 Z " fill="#C33741" transform="translate(223,43)"/>
<path d="M0 0 C2.64 0 5.28 0 8 0 C8 3.3 8 6.6 8 10 C7.34 10 6.68 10 6 10 C6.33 7.69 6.66 5.38 7 3 C5.68 3 4.36 3 3 3 C2.34 5.31 1.68 7.62 1 10 C0.67 10 0.34 10 0 10 C0 6.7 0 3.4 0 0 Z " fill="#FEE4E3" transform="translate(144,182)"/>
<path d="M0 0 C0.66 0 1.32 0 2 0 C2 0.66 2 1.32 2 2 C2.66 2 3.32 2 4 2 C5.7265625 3.75 5.7265625 3.75 7.625 6 C8.25664062 6.7425 8.88828125 7.485 9.5390625 8.25 C10.02117187 8.8275 10.50328125 9.405 11 10 C7.20668473 10 6.34617886 8.53090475 3.62890625 6.11328125 C1.12584634 4.40255685 -1.0787102 4.65222741 -4 5 C-2.71937515 3.2925002 -1.38232443 1.62626404 0 0 Z " fill="#B82E35" transform="translate(171,43)"/>
<path d="M0 0 C0.66 0.33 1.32 0.66 2 1 C2 6 2 11 2 16 C1.01 15.67 0.02 15.34 -1 15 C-1.02693575 12.87506859 -1.04636628 10.75004088 -1.0625 8.625 C-1.07410156 7.44164062 -1.08570313 6.25828125 -1.09765625 5.0390625 C-1 2 -1 2 0 0 Z " fill="#FEF5F4" transform="translate(158,174)"/>
<path d="M0 0 C2.475 0.99 2.475 0.99 5 2 C4.34 3.98 3.68 5.96 3 8 C2.01 7.67 1.02 7.34 0 7 C0 6.01 0 5.02 0 4 C-3.3 4 -6.6 4 -10 4 C-10 5.65 -10 7.3 -10 9 C-10.33 9 -10.66 9 -11 9 C-11 7.02 -11 5.04 -11 3 C-7.37 3 -3.74 3 0 3 C0 2.01 0 1.02 0 0 Z " fill="#FAD2D2" transform="translate(116,169)"/>
<path d="M0 0 C2.97 0.495 2.97 0.495 6 1 C6.09152344 1.57234375 6.18304688 2.1446875 6.27734375 2.734375 C7.17688458 5.55455705 8.56952241 7.07584262 10.5625 9.25 C11.20316406 9.95640625 11.84382812 10.6628125 12.50390625 11.390625 C12.99761719 11.92171875 13.49132812 12.4528125 14 13 C13.67 13.66 13.34 14.32 13 15 C11.0146241 13.06852571 9.03670608 11.13033391 7.0625 9.1875 C6.49853516 8.64029297 5.93457031 8.09308594 5.35351562 7.52929688 C1.11328125 3.33984375 1.11328125 3.33984375 0 0 Z " fill="#C13138" transform="translate(205,135)"/>
<path d="M0 0 C0.99 0 1.98 0 3 0 C3.09765625 6.15234375 3.09765625 6.15234375 3 8 C2 9 2 9 -1.5625 9.0625 C-2.696875 9.041875 -3.83125 9.02125 -5 9 C-4.67 7.68 -4.34 6.36 -4 5 C-4 5.99 -4 6.98 -4 8 C-2.68 8 -1.36 8 0 8 C-0.185625 7.05125 -0.37125 6.1025 -0.5625 5.125 C-1 2 -1 2 0 0 Z " fill="#E0E0E0" transform="translate(269,184)"/>
<path d="M0 0 C-0.33 0.598125 -0.66 1.19625 -1 1.8125 C-2.20787988 4.05386471 -2.20787988 4.05386471 -2 7 C-2.61875 7.144375 -3.2375 7.28875 -3.875 7.4375 C-6.03258322 7.93152225 -6.03258322 7.93152225 -8 9 C-8.36794764 5.68847126 -8.29809215 4.39390748 -6.25 1.6875 C-4 0 -4 0 0 0 Z " fill="#DB252E" transform="translate(177,89)"/>
<path d="M0 0 C0.66 0.33 1.32 0.66 2 1 C2 1.66 2 2.32 2 3 C2.598125 3.28875 3.19625 3.5775 3.8125 3.875 C6 5 6 5 9 7 C9 7.66 9 8.32 9 9 C9.66 9.33 10.32 9.66 11 10 C10.01 11.485 10.01 11.485 9 13 C5.7 9.37 2.4 5.74 -1 2 C-0.67 1.34 -0.34 0.68 0 0 Z " fill="#F9E0DF" transform="translate(264,82)"/>
<path d="M0 0 C0.33 0 0.66 0 1 0 C1 1.65 1 3.3 1 5 C3.97 5 6.94 5 10 5 C9.67 6.32 9.34 7.64 9 9 C9 8.01 9 7.02 9 6 C5.7 6 2.4 6 -1 6 C-1 9.96 -1 13.92 -1 18 C-1.33 18 -1.66 18 -2 18 C-2 13.05 -2 8.1 -2 3 C-1.34 3 -0.68 3 0 3 C0 2.01 0 1.02 0 0 Z " fill="#C2394D" transform="translate(104,173)"/>
<path d="M0 0 C2.3125 0.1875 2.3125 0.1875 5 1 C8 5.03448276 8 5.03448276 8 8 C6.68 8 5.36 8 4 8 C3.34 7.01 2.68 6.02 2 5 C-0.05003955 3.80767387 -0.05003955 3.80767387 -2 3 C-0.35 3 1.3 3 3 3 C3 2.34 3 1.68 3 1 C2.01 1.33 1.02 1.66 0 2 C0 1.34 0 0.68 0 0 Z " fill="#C04353" transform="translate(128,168)"/>
<path d="M0 0 C3.82283043 0.54611863 5.41079952 2.23818615 8 5 C8.66 5.33 9.32 5.66 10 6 C11.6875 8.375 11.6875 8.375 13 11 C12.67 11.99 12.34 12.98 12 14 C10.56041153 12.41856529 9.12341355 10.83477221 7.6875 9.25 C6.88699219 8.36828125 6.08648437 7.4865625 5.26171875 6.578125 C3.39083089 4.44550672 1.65915714 2.29812057 0 0 Z " fill="#BE343B" transform="translate(151,134)"/>
<path d="M0 0 C1.98 0 3.96 0 6 0 C5.773125 0.7425 5.54625 1.485 5.3125 2.25 C4.70523302 5.05914993 4.70523302 5.05914993 6.4375 7.3125 C6.953125 7.869375 7.46875 8.42625 8 9 C5.03 8.505 5.03 8.505 2 8 C0 1.125 0 1.125 0 0 Z " fill="#FAE6E1" transform="translate(115,96)"/>
<path d="M0 0 C0.66 0 1.32 0 2 0 C2.66 2.97 3.32 5.94 4 9 C2.02 9 0.04 9 -2 9 C-1.34 6.03 -0.68 3.06 0 0 Z " fill="#E2E2E2" transform="translate(258,174)"/>
<path d="M0 0 C0.99 0.33 1.98 0.66 3 1 C0.03 3.97 0.03 3.97 -3 7 C-6.71860179 5.46126823 -7.35633541 4.52488612 -10 1 C-6.7 1.33 -3.4 1.66 0 2 C0 1.34 0 0.68 0 0 Z " fill="#AE363B" transform="translate(176,149)"/>
<path d="M0 0 C3.3 0 6.6 0 10 0 C10 0.99 10 1.98 10 3 C5.38 3 0.76 3 -4 3 C-2.68 2.67 -1.36 2.34 0 2 C0 1.34 0 0.68 0 0 Z " fill="#B62635" transform="translate(106,189)"/>
<path d="M0 0 C0.33 0.66 0.66 1.32 1 2 C3.52733235 2.65555119 3.52733235 2.65555119 6 3 C5.67 3.99 5.34 4.98 5 6 C4.01 5.67 3.02 5.34 2 5 C2 5.66 2 6.32 2 7 C-0.86724686 6.42655063 -1.8614515 6.1385485 -4 4 C-2.68 2.68 -1.36 1.36 0 0 Z " fill="#F3EFEA" transform="translate(234,146)"/>
<path d="M0 0 C0 6 0 6 -1 8 C-1.78375 8.309375 -2.5675 8.61875 -3.375 8.9375 C-5.95982105 9.98373709 -7.2046169 10.92113535 -9 13 C-9.66 12.67 -10.32 12.34 -11 12 C-7.37 8.04 -3.74 4.08 0 0 Z " fill="#F8D5D7" transform="translate(258,120)"/>
<path d="M0 0 C0.99 0.66 1.98 1.32 3 2 C3 2.99 3 3.98 3 5 C0.6875 7 0.6875 7 -2 9 C-3.0173873 9.98230498 -4.02596117 10.97469597 -5 12 C-5 10.35 -5 8.7 -5 7 C-4.34 7 -3.68 7 -3 7 C-3 6.01 -3 5.02 -3 4 C-2.01 3.34 -1.02 2.68 0 2 C0 1.34 0 0.68 0 0 Z " fill="#F9D8D4" transform="translate(222,96)"/>
<path d="M0 0 C0.99 0 1.98 0 3 0 C2.25 4.75 2.25 4.75 0 7 C-3.125 7.125 -3.125 7.125 -6 7 C-6 6.34 -6 5.68 -6 5 C-4.34467377 3.98133771 -2.67739862 2.98189187 -1 2 C-0.67 1.34 -0.34 0.68 0 0 Z " fill="#B52839" transform="translate(174,185)"/>
<path d="M0 0 C1.32 0 2.64 0 4 0 C4.66 2.64 5.32 5.28 6 8 C4.35 7.67 2.7 7.34 1 7 C0.67 4.69 0.34 2.38 0 0 Z " fill="#131313" transform="translate(306,184)"/>
<path d="M0 0 C2.513523 0.96673961 3.73893878 1.88134695 5.4375 3.9375 C2.81434968 5.24907516 1.20716564 4.83399988 -1.6875 4.5 C-2.59757813 4.39816406 -3.50765625 4.29632813 -4.4453125 4.19140625 C-5.14398438 4.10761719 -5.84265625 4.02382812 -6.5625 3.9375 C-3.27554348 -0.0798913 -3.27554348 -0.0798913 0 0 Z " fill="#FDEBED" transform="translate(190.5625,164.0625)"/>
<path d="M0 0 C0.66 0.33 1.32 0.66 2 1 C-2.29 5.62 -6.58 10.24 -11 15 C-11 12 -11 12 -10 10 C-9.34 10 -8.68 10 -8 10 C-7.79375 9.46375 -7.5875 8.9275 -7.375 8.375 C-5.42003056 4.9982346 -2.81776305 2.69525161 0 0 Z " fill="#AF2836" transform="translate(255,121)"/>
<path d="M0 0 C4.13937592 3.30015998 7.58662205 6.17324411 10 11 C8.35 10.67 6.7 10.34 5 10 C5 9.34 5 8.68 5 8 C4.34 7.67 3.68 7.34 3 7 C0 3.53846154 0 3.53846154 0 0 Z " fill="#F8E1DC" transform="translate(134,117)"/>
<path d="M0 0 C0.99 0 1.98 0 3 0 C3.33 0.66 3.66 1.32 4 2 C6.31 2 8.62 2 11 2 C9.68 3.65 8.36 5.3 7 7 C4.13302508 5.71480435 2.02392288 4.42870746 0 2 C0 1.34 0 0.68 0 0 Z " fill="#FBD9D6" transform="translate(192,121)"/>
<path d="M0 0 C3.59634744 3.49359465 6.83451967 7.11098131 10 11 C7.625 10.8125 7.625 10.8125 5 10 C4.28272222 8.35448038 3.61674772 6.68577711 3 5 C0.98264795 3.65589738 0.98264795 3.65589738 -1 3 C-0.67 2.01 -0.34 1.02 0 0 Z " fill="#FADFDA" transform="translate(124,106)"/>
<path d="M0 0 C2.64 0 5.28 0 8 0 C7.375 1.875 7.375 1.875 6 4 C2.875 5.25 2.875 5.25 0 6 C0 4.02 0 2.04 0 0 Z " fill="#EF1B2E" transform="translate(185,72)"/>
<path d="M0 0 C1.11763015 3.90716233 1.25183297 7.71501445 1.42578125 11.7578125 C1.77511415 14.18374814 1.77511415 14.18374814 4.04296875 15.3046875 C4.68878906 15.53414062 5.33460938 15.76359375 6 16 C3.625 16.125 3.625 16.125 1 16 C-1 14 -1 14 -1.23046875 10.99609375 C-1.21628906 9.82175781 -1.20210937 8.64742187 -1.1875 7.4375 C-1.17783203 5.67212891 -1.17783203 5.67212891 -1.16796875 3.87109375 C-1 1 -1 1 0 0 Z " fill="#FDC9CA" transform="translate(186,173)"/>
<path d="M0 0 C2 4 2 4 2 8 C1.34 8 0.68 8 0 8 C-0.33 7.34 -0.66 6.68 -1 6 C-2.32 6.99 -3.64 7.98 -5 9 C-5.66 8.34 -6.32 7.68 -7 7 C-4.69 4.69 -2.38 2.38 0 0 Z " fill="#F4D8D4" transform="translate(274,103)"/>
<path d="M0 0 C0.66 0.33 1.32 0.66 2 1 C1.40138258 3.35171131 0.73075648 5.6859378 0 8 C-3.06890187 9.53445094 -5.70094266 8.54984289 -9 8 C-9 7.67 -9 7.34 -9 7 C-5.535 6.505 -5.535 6.505 -2 6 C-2.99 5.34 -3.98 4.68 -5 4 C-4.01 3.67 -3.02 3.34 -2 3 C-1.34 2.01 -0.68 1.02 0 0 Z " fill="#F9E2E8" transform="translate(197,188)"/>
<path d="M0 0 C0.99 0 1.98 0 3 0 C1.546875 5.5703125 1.546875 5.5703125 -0.75 7.375 C-3.56453896 8.15681638 -6.09358367 8.13210983 -9 8 C-9 7.34 -9 6.68 -9 6 C-6.04335481 4.5216774 -3.25770263 4.93967217 0 5 C0 3.35 0 1.7 0 0 Z " fill="#AD3247" transform="translate(133,185)"/>
<path d="M0 0 C0.66 0 1.32 0 2 0 C2.33 0.66 2.66 1.32 3 2 C3.99 2.66 4.98 3.32 6 4 C5.01 4.66 4.02 5.32 3 6 C2.27034634 8.56282742 2.27034634 8.56282742 2 11 C1.34 11 0.68 11 0 11 C0 7.37 0 3.74 0 0 Z " fill="#020601" transform="translate(232,176)"/>
<path d="M0 0 C1 3 1 3 -0.125 6.0625 C-2.19821268 9.31053319 -3.35433814 10.01468598 -7 11 C-6.34 10.01 -5.68 9.02 -5 8 C-5.66 7.67 -6.32 7.34 -7 7 C-4.69 4.69 -2.38 2.38 0 0 Z " fill="#CE3D47" transform="translate(134,82)"/>
<path d="M0 0 C0.99 0 1.98 0 3 0 C2.63487253 2.7019433 2.30130763 4.58390852 0.6875 6.8125 C-1 8 -1 8 -5 8 C-5 7.01 -5 6.02 -5 5 C-4.360625 4.731875 -3.72125 4.46375 -3.0625 4.1875 C-0.66868314 3.11332248 -0.66868314 3.11332248 0 0 Z " fill="#ED1725" transform="translate(157,72)"/>
<path d="M0 0 C0.8125 1.6875 0.8125 1.6875 1 4 C-1.94955185 7.470061 -5.40155384 10.22405582 -9 13 C-9.66 12.67 -10.32 12.34 -11 12 C-10.37351563 11.38511719 -9.74703125 10.77023438 -9.1015625 10.13671875 C-8.28429687 9.32847656 -7.46703125 8.52023438 -6.625 7.6875 C-5.40683594 6.48673828 -5.40683594 6.48673828 -4.1640625 5.26171875 C-1.87395158 2.99990063 -1.87395158 2.99990063 0 0 Z " fill="#B53D44" transform="translate(218,48)"/>
<path d="M0 0 C0.33 1.32 0.66 2.64 1 4 C1.99 4.33 2.98 4.66 4 5 C3.34 5 2.68 5 2 5 C1.67 6.98 1.34 8.96 1 11 C-0.32 11.33 -1.64 11.66 -3 12 C-2.01 8.04 -1.02 4.08 0 0 Z " fill="#313131" transform="translate(256,169)"/>
<path d="M0 0 C3.91939465 3.80411834 7.49102731 7.81576108 11 12 C7.76513406 11.29822123 6.10818805 10.63523506 4 8 C4 7.34 4 6.68 4 6 C2.68 5.34 1.36 4.68 0 4 C0 2.68 0 1.36 0 0 Z " fill="#F8DAD2" transform="translate(160,144)"/>
<path d="M0 0 C2.65664779 0.15180845 4.45217862 0.52011425 6.48046875 2.296875 C7.875 3.875 7.875 3.875 10 7 C9.67 7.99 9.34 8.98 9 10 C5.73991357 6.83047153 2.77762123 3.60062011 0 0 Z " fill="#F8DBD5" transform="translate(184,55)"/>
<path d="M0 0 C0.66 0 1.32 0 2 0 C3.25664978 2.90600261 4 4.79604584 4 8 C-0.455 7.01 -0.455 7.01 -5 6 C-4.67 5.01 -4.34 4.02 -4 3 C-4 3.66 -4 4.32 -4 5 C-2.68 5 -1.36 5 0 5 C0 3.35 0 1.7 0 0 Z " fill="#F8E4EE" transform="translate(207,187)"/>
<path d="M0 0 C0.66 0 1.32 0 2 0 C1.67 4.62 1.34 9.24 1 14 C-1 12 -1 12 -1.23046875 9.6875 C-1.21628906 8.800625 -1.20210937 7.91375 -1.1875 7 C-1.18105469 6.113125 -1.17460937 5.22625 -1.16796875 4.3125 C-1 2 -1 2 0 0 Z " fill="#CE1E3A" transform="translate(163,173)"/>
<path d="M0 0 C2.31 1.98 4.62 3.96 7 6 C6.67 6.99 6.34 7.98 6 9 C5.01 8.67 4.02 8.34 3 8 C2.67 7.01 2.34 6.02 2 5 C1.01 5 0.02 5 -1 5 C-1.33 4.01 -1.66 3.02 -2 2 C-1.34 2 -0.68 2 0 2 C0 1.34 0 0.68 0 0 Z " fill="#F4E2DE" transform="translate(213,87)"/>
<path d="M0 0 C1.65 0 3.3 0 5 0 C5 5.94 5 11.88 5 18 C4.67 18 4.34 18 4 18 C3.96261719 17.03578125 3.92523438 16.0715625 3.88671875 15.078125 C3.82097656 13.81484375 3.75523438 12.5515625 3.6875 11.25 C3.62949219 9.99703125 3.57148437 8.7440625 3.51171875 7.453125 C2.99544099 3.96923537 2.3746744 2.52110204 0 0 Z " fill="#FDEAE5" transform="translate(83,172)"/>
<path d="M0 0 C0.33 0.99 0.66 1.98 1 3 C0.38125 3.5775 -0.2375 4.155 -0.875 4.75 C-3.0691654 6.81426992 -3.0691654 6.81426992 -3.9375 9.1875 C-5 11 -5 11 -7.625 11.75 C-8.40875 11.8325 -9.1925 11.915 -10 12 C-9.61328125 11.55269531 -9.2265625 11.10539062 -8.828125 10.64453125 C-5.81609925 7.1478974 -2.85678969 3.62592537 0 0 Z " fill="#B6383B" transform="translate(145,70)"/>
<path d="M0 0 C3.63 0.33 7.26 0.66 11 1 C10.67 1.66 10.34 2.32 10 3 C7.49609375 3.4140625 7.49609375 3.4140625 4.4375 3.625 C3.42558594 3.69976562 2.41367188 3.77453125 1.37109375 3.8515625 C0.58863281 3.90054688 -0.19382813 3.94953125 -1 4 C-0.67 2.68 -0.34 1.36 0 0 Z " fill="#FDEFF2" transform="translate(185,192)"/>
<path d="M0 0 C1.32 0.33 2.64 0.66 4 1 C4 1.66 4 2.32 4 3 C4.99 3.33 5.98 3.66 7 4 C8.39712274 5.95597184 9.73779907 7.95436401 11 10 C10.67 10.66 10.34 11.32 10 12 C9.443125 11.278125 8.88625 10.55625 8.3125 9.8125 C6.02680364 6.93981825 6.02680364 6.93981825 3.3125 4.3125 C1 2 1 2 0 0 Z " fill="#C23942" transform="translate(119,100)"/>
<path d="M0 0 C0.33 0.66 0.66 1.32 1 2 C1.66 2 2.32 2 3 2 C3 4.64 3 7.28 3 10 C1.68 10 0.36 10 -1 10 C-0.79375 9.236875 -0.5875 8.47375 -0.375 7.6875 C0.33391203 4.78114056 0.33391203 4.78114056 -2 2 C-1.34 2 -0.68 2 0 2 C0 1.34 0 0.68 0 0 Z " fill="#F7D9DD" transform="translate(276,93)"/>
<path d="M0 0 C0.33 0 0.66 0 1 0 C1.33 2.31 1.66 4.62 2 7 C3.32 7.33 4.64 7.66 6 8 C6 8.99 6 9.98 6 11 C1.125 10.125 1.125 10.125 0 9 C-0.07179964 7.48071962 -0.08392007 5.95832518 -0.0625 4.4375 C-0.05347656 3.61121094 -0.04445312 2.78492188 -0.03515625 1.93359375 C-0.02355469 1.29550781 -0.01195312 0.65742188 0 0 Z " fill="#F9E7DE" transform="translate(166,178)"/>
<path d="M0 0 C0.66 0 1.32 0 2 0 C2 2.31 2 4.62 2 7 C2.99 7 3.98 7 5 7 C4.67 8.32 4.34 9.64 4 11 C2.68 10.67 1.36 10.34 0 10 C0 6.7 0 3.4 0 0 Z " fill="#FBECEC" transform="translate(125,178)"/>
<path d="M0 0 C0.33 0 0.66 0 1 0 C1.05422947 1.4370809 1.09289723 2.87475462 1.125 4.3125 C1.14820313 5.11300781 1.17140625 5.91351563 1.1953125 6.73828125 C1 9 1 9 -1 12 C-1.66 12 -2.32 12 -3 12 C-2.40075776 7.80530429 -1.42500059 3.99000166 0 0 Z " fill="#B53D52" transform="translate(219,169)"/>
<path d="M0 0 C0 1.65 0 3.3 0 5 C-0.99 5 -1.98 5 -3 5 C-3.66 4.01 -4.32 3.02 -5 2 C-7.05003955 0.80767387 -7.05003955 0.80767387 -9 0 C-3.375 -1.125 -3.375 -1.125 0 0 Z " fill="#BA3F4F" transform="translate(177,171)"/>
<path d="M0 0 C2.91387197 0.2913872 3.82565583 0.79452294 5.75 3.0625 C6.1625 3.701875 6.575 4.34125 7 5 C5.68 5.33 4.36 5.66 3 6 C3 5.34 3 4.68 3 4 C2.01 4 1.02 4 0 4 C-0.33 3.01 -0.66 2.02 -1 1 C-0.67 0.67 -0.34 0.34 0 0 Z " fill="#FBEDE4" transform="translate(204,138)"/>
<path d="M0 0 C2.475 0.99 2.475 0.99 5 2 C4.67 2.99 4.34 3.98 4 5 C3.01 5 2.02 5 1 5 C1 5.66 1 6.32 1 7 C0.34 7 -0.32 7 -1 7 C-0.67 4.69 -0.34 2.38 0 0 Z " fill="#F4FBF2" transform="translate(187,173)"/>
<path d="M0 0 C1.27875 -0.061875 2.5575 -0.12375 3.875 -0.1875 C4.95394531 -0.23970703 4.95394531 -0.23970703 6.0546875 -0.29296875 C6.69664062 -0.19628906 7.33859375 -0.09960938 8 0 C8.66 0.99 9.32 1.98 10 3 C9.01 3.99 8.02 4.98 7 6 C4.525 5.01 4.525 5.01 2 4 C2 3.67 2 3.34 2 3 C3.65 3 5.3 3 7 3 C7 2.34 7 1.68 7 1 C6.21625 1.20625 5.4325 1.4125 4.625 1.625 C3.325625 1.810625 3.325625 1.810625 2 2 C1.34 1.34 0.68 0.68 0 0 Z " fill="#CC5064" transform="translate(186,168)"/>
<path d="M0 0 C0.99 0 1.98 0 3 0 C3 2.97 3 5.94 3 9 C2.01 8.67 1.02 8.34 0 8 C0 5.36 0 2.72 0 0 Z " fill="#020202" transform="translate(295,169)"/>
<path d="M0 0 C0 0.99 0 1.98 0 3 C-5.25714286 7 -5.25714286 7 -8 7 C-6.4365884 2.43002763 -5.27390657 0 0 0 Z " fill="#EDFEFB" transform="translate(190,161)"/>
<path d="M0 0 C0.99 0 1.98 0 3 0 C3 0.66 3 1.32 3 2 C2.34 2 1.68 2 1 2 C0.67 3.65 0.34 5.3 0 7 C-0.99 7 -1.98 7 -3 7 C-3.33 5.68 -3.66 4.36 -4 3 C-3.01 3 -2.02 3 -1 3 C-0.67 2.01 -0.34 1.02 0 0 Z " fill="#ED1923" transform="translate(141,112)"/>
<path d="M0 0 C2.475 0.495 2.475 0.495 5 1 C5.33 1.99 5.66 2.98 6 4 C6.66 4.66 7.32 5.32 8 6 C7.34 6.66 6.68 7.32 6 8 C4.99403703 7.0479279 3.99538437 6.08812654 3 5.125 C2.443125 4.59132813 1.88625 4.05765625 1.3125 3.5078125 C0 2 0 2 0 0 Z " fill="#FCD8D8" transform="translate(240,58)"/>
<path d="M0 0 C0.66 0 1.32 0 2 0 C2 2.31 2 4.62 2 7 C0.68 7 -0.64 7 -2 7 C-1.125 1.125 -1.125 1.125 0 0 Z " fill="#EEFEFA" transform="translate(172,158)"/>
<path d="M0 0 C0.66 0 1.32 0 2 0 C0.63842622 5.29500913 -2.60343955 7.23745533 -7 10 C-5.32598022 6.04322598 -2.86850715 3.15535787 0 0 Z " fill="#D7232D" transform="translate(210,117)"/>
<path d="M0 0 C1.98 1.65 3.96 3.3 6 5 C5.01 5.99 4.02 6.98 3 8 C2.67 7.34 2.34 6.68 2 6 C1.01 5.67 0.02 5.34 -1 5 C-0.67 3.35 -0.34 1.7 0 0 Z " fill="#CF2A35" transform="translate(176,106)"/>
<path d="M0 0 C0.66 0 1.32 0 2 0 C2 1.32 2 2.64 2 4 C1.01 4 0.02 4 -1 4 C-1 4.99 -1 5.98 -1 7 C-2.32 6.67 -3.64 6.34 -5 6 C-3.38405168 3.95880212 -1.7143618 1.95927063 0 0 Z " fill="#C43C44" transform="translate(223,101)"/>
<path d="M0 0 C2.31 0 4.62 0 7 0 C6.67 1.32 6.34 2.64 6 4 C4.35 3.67 2.7 3.34 1 3 C0.67 2.01 0.34 1.02 0 0 Z " fill="#EFFEFE" transform="translate(103,162)"/>
<path d="M0 0 C0 0.99 0 1.98 0 3 C-0.99 3.33 -1.98 3.66 -3 4 C-4.20882096 6.00016466 -4.20882096 6.00016466 -5 8 C-6.32 7.34 -7.64 6.68 -9 6 C-7.8803014 4.99406757 -6.7540588 3.9954151 -5.625 3 C-4.68527344 2.1646875 -4.68527344 2.1646875 -3.7265625 1.3125 C-2 0 -2 0 0 0 Z " fill="#FCDFDF" transform="translate(180,150)"/>
<path d="M0 0 C4.875 4.75 4.875 4.75 6 7 C5.01 8.485 5.01 8.485 4 10 C3.67 9.01 3.34 8.02 3 7 C0.98491642 6.26676204 0.98491642 6.26676204 -1 6 C-1 5.34 -1 4.68 -1 4 C-0.34 4 0.32 4 1 4 C0.67 2.68 0.34 1.36 0 0 Z " fill="#CF3137" transform="translate(190,120)"/>
<path d="M0 0 C-3.465 2.97 -3.465 2.97 -7 6 C-6.625 3.0625 -6.625 3.0625 -6 0 C-4 -1 -4 -1 0 0 Z " fill="#FCE1E1" transform="translate(217,109)"/>
<path d="M0 0 C1 2 1 2 0 6 C-3.3 5.67 -6.6 5.34 -10 5 C-10 4.67 -10 4.34 -10 4 C-7.98177083 3.54427083 -5.96354167 3.08854167 -3.9453125 2.6328125 C-1.79280036 2.09525572 -1.79280036 2.09525572 0 0 Z " fill="#FCDFDA" transform="translate(176,189)"/>
<path d="M0 0 C0.33 0 0.66 0 1 0 C1.05395478 1.62463842 1.09277195 3.24978541 1.125 4.875 C1.14820313 5.77992188 1.17140625 6.68484375 1.1953125 7.6171875 C1 10 1 10 -1 12 C-1 10.68 -1 9.36 -1 8 C-1.99 7.67 -2.98 7.34 -4 7 C-3.525625 6.5875 -3.05125 6.175 -2.5625 5.75 C-0.83733482 3.817815 -0.43415125 2.51807725 0 0 Z " fill="#FEF4F3" transform="translate(202,180)"/>
<path d="M0 0 C0.99 0 1.98 0 3 0 C3.5745952 3.73486879 4 7.21293268 4 11 C3.34 10.67 2.68 10.34 2 10 C1.3671875 7.71484375 1.3671875 7.71484375 0.875 4.9375 C0.70742187 4.01839844 0.53984375 3.09929687 0.3671875 2.15234375 C0.24601563 1.44207031 0.12484375 0.73179687 0 0 Z " fill="#FED3D1" transform="translate(211,171)"/>
<path d="M0 0 C1.98 1.65 3.96 3.3 6 5 C5.67 5.99 5.34 6.98 5 8 C2.5 6.25 2.5 6.25 0 4 C0 2.68 0 1.36 0 0 Z " fill="#F7D7D6" transform="translate(152,136)"/>
<path d="M0 0 C-0.34879632 3.25543229 -1.02133261 4.01873107 -3.5625 6.25 C-4.366875 6.8275 -5.17125 7.405 -6 8 C-5.62403791 5.21788056 -5.32681541 3.4120716 -3.5625 1.1875 C-2 0 -2 0 0 0 Z " fill="#FCE2DE" transform="translate(127,88)"/>
<path d="M0 0 C2 1 2 1 3.1875 3.8125 C3.96421451 6.85961076 4.10096399 8.13749363 3 11 C2.34 10.34 1.68 9.68 1 9 C1 7.33333333 1 5.66666667 1 4 C0.34 3.01 -0.32 2.02 -1 1 C-0.67 0.67 -0.34 0.34 0 0 Z " fill="#FAEFE9" transform="translate(259,72)"/>
<path d="M0 0 C2.31 0 4.62 0 7 0 C7 0.99 7 1.98 7 3 C4.69 3 2.38 3 0 3 C0 2.01 0 1.02 0 0 Z " fill="#B82634" transform="translate(106,179)"/>
<path d="M0 0 C1.98 0 3.96 0 6 0 C6 0.99 6 1.98 6 3 C3.69 3.33 1.38 3.66 -1 4 C-0.67 2.68 -0.34 1.36 0 0 Z " fill="#FDF4FB" transform="translate(110,173)"/>
<path d="M0 0 C2.31 0.33 4.62 0.66 7 1 C7 1.66 7 2.32 7 3 C6.05125 3.309375 5.1025 3.61875 4.125 3.9375 C1.13919592 4.87394742 1.13919592 4.87394742 -1 6 C-0.67 4.02 -0.34 2.04 0 0 Z " fill="#B32737" transform="translate(124,168)"/>
<path d="M0 0 C0.33 0.66 0.66 1.32 1 2 C0.0625 4.125 0.0625 4.125 -1 6 C-1.66 6 -2.32 6 -3 6 C-3.33 6.99 -3.66 7.98 -4 9 C-4.99 8.67 -5.98 8.34 -7 8 C-4.69 5.36 -2.38 2.72 0 0 Z " fill="#F9CBC9" transform="translate(266,111)"/>
<path d="M0 0 C0.66 0.99 1.32 1.98 2 3 C0.75 4.5 0.75 4.5 -1 6 C-2.32 6 -3.64 6 -5 6 C-3.86695008 2.60085025 -2.87481525 1.94745549 0 0 Z " fill="#EC1823" transform="translate(141,90)"/>
<path d="M0 0 C0.33 0 0.66 0 1 0 C0.75 3.375 0.75 3.375 0 7 C-2.0625 8.4375 -2.0625 8.4375 -4 9 C-4.33 7.68 -4.66 6.36 -5 5 C-3.68 4.67 -2.36 4.34 -1 4 C-0.67 2.68 -0.34 1.36 0 0 Z " fill="#212121" transform="translate(247,183)"/>
<path d="M0 0 C2.875 -0.125 2.875 -0.125 6 0 C8 2 8 2 8.125 4.625 C8.08375 5.40875 8.0425 6.1925 8 7 C7.01 7.495 7.01 7.495 6 8 C5.9071875 6.824375 5.9071875 6.824375 5.8125 5.625 C5.544375 4.75875 5.27625 3.8925 5 3 C2.52363988 1.62533375 2.52363988 1.62533375 0 1 C0 0.67 0 0.34 0 0 Z " fill="#F3C7D0" transform="translate(171,168)"/>
<path d="M0 0 C0.66 0.99 1.32 1.98 2 3 C1.67 3.66 1.34 4.32 1 5 C-1.32156597 5.40729228 -3.6568787 5.74438677 -6 6 C-4 4 -2 2 0 0 Z " fill="#F2D9D2" transform="translate(229,151)"/>
<path d="M0 0 C0.99 0.33 1.98 0.66 3 1 C1.02 3.31 -0.96 5.62 -3 8 C-3.33 6.68 -3.66 5.36 -4 4 C-2.68 3.67 -1.36 3.34 0 3 C0 2.01 0 1.02 0 0 Z " fill="#FAD7D7" transform="translate(207,115)"/>
<path d="M0 0 C3.25543229 0.34879632 4.01873107 1.02133261 6.25 3.5625 C6.8275 4.366875 7.405 5.17125 8 6 C7.67 6.66 7.34 7.32 7 8 C5.83035398 6.8572081 4.66435444 5.71068285 3.5 4.5625 C2.8503125 3.92441406 2.200625 3.28632812 1.53125 2.62890625 C0 1 0 1 0 0 Z " fill="#FCE7DC" transform="translate(184,113)"/>
<path d="M0 0 C1.14926266 0.95421808 2.29430541 1.91352045 3.4375 2.875 C4.07558594 3.40867187 4.71367187 3.94234375 5.37109375 4.4921875 C7 6 7 6 8 8 C4.82461668 7.65978036 3.97723135 6.97533396 1.75 4.5625 C0 2 0 2 0 0 Z " fill="#BD3F44" transform="translate(182,112)"/>
<path d="M0 0 C0.66 0 1.32 0 2 0 C2.33 0.99 2.66 1.98 3 3 C0.03 5.475 0.03 5.475 -3 8 C-3 7.01 -3 6.02 -3 5 C-2.34 5 -1.68 5 -1 5 C-0.67 3.35 -0.34 1.7 0 0 Z " fill="#C82432" transform="translate(261,112)"/>
<path d="M0 0 C0.99 0.33 1.98 0.66 3 1 C2.67 2.65 2.34 4.3 2 6 C1.01 6.33 0.02 6.66 -1 7 C-1.125 2.25 -1.125 2.25 0 0 Z " fill="#EB181E" transform="translate(257,86)"/>
<path d="M0 0 C1.32 0 2.64 0 4 0 C4.33 1.65 4.66 3.3 5 5 C4.01 5 3.02 5 2 5 C0.3125 3 0.3125 3 -1 1 C-0.67 0.67 -0.34 0.34 0 0 Z " fill="#CA3440" transform="translate(209,80)"/>
<path d="M0 0 C1.65 1.65 3.3 3.3 5 5 C3.125 6.0625 3.125 6.0625 1 7 C0.34 6.67 -0.32 6.34 -1 6 C-0.67 5.34 -0.34 4.68 0 4 C0 2.68 0 1.36 0 0 Z " fill="#CC3B43" transform="translate(236,55)"/>
<path d="M0 0 C2.64 0 5.28 0 8 0 C8 0.66 8 1.32 8 2 C4.71303767 2.79953138 3.28976808 3.09658936 0 2 C0 1.34 0 0.68 0 0 Z " fill="#EBFEFB" transform="translate(107,184)"/>
<path d="M0 0 C0.33 0.66 0.66 1.32 1 2 C-0.4375 4.625 -0.4375 4.625 -2 7 C-3.32 6.67 -4.64 6.34 -6 6 C-4.02 4.02 -2.04 2.04 0 0 Z " fill="#FAD4D1" transform="translate(246,133)"/>
<path d="M0 0 C0.33 0 0.66 0 1 0 C1 1.65 1 3.3 1 5 C-0.98 5.99 -0.98 5.99 -3 7 C-2.25 2.25 -2.25 2.25 0 0 Z " fill="#CC2936" transform="translate(217,108)"/>
<path d="M0 0 C0.66 0 1.32 0 2 0 C2 1.65 2 3.3 2 5 C2.66 5 3.32 5 4 5 C3.67 5.99 3.34 6.98 3 8 C1.35 6.02 -0.3 4.04 -2 2 C-1.34 2 -0.68 2 0 2 C0 1.34 0 0.68 0 0 Z " fill="#C23943" transform="translate(132,110)"/>
<path d="M0 0 C-0.625 1.875 -0.625 1.875 -2 4 C-5.125 5.25 -5.125 5.25 -8 6 C-3.375 0 -3.375 0 0 0 Z " fill="#CA2735" transform="translate(163,55)"/>
<path d="M0 0 C0.66 0 1.32 0 2 0 C1.125 3.875 1.125 3.875 0 5 C-2.33297433 5.04092937 -4.66705225 5.04241723 -7 5 C-6.401875 4.731875 -5.80375 4.46375 -5.1875 4.1875 C-2.95672092 3.1106021 -2.95672092 3.1106021 -1.375 1.375 C-0.694375 0.694375 -0.694375 0.694375 0 0 Z " fill="#C5C5C5" transform="translate(242,184)"/>
<path d="M0 0 C1.65 1.65 3.3 3.3 5 5 C4.01 5.495 4.01 5.495 3 6 C2.67 6.66 2.34 7.32 2 8 C0.4375 6.8125 0.4375 6.8125 -1 5 C-0.6875 2.3125 -0.6875 2.3125 0 0 Z " fill="#F6DAD7" transform="translate(145,128)"/>
<path d="M0 0 C1.65 1.32 3.3 2.64 5 4 C4.67 4.99 4.34 5.98 4 7 C3.01 6.67 2.02 6.34 1 6 C0.67 4.02 0.34 2.04 0 0 Z " fill="#C62F3C" transform="translate(243,63)"/>
<path d="M0 0 C1.32 0 2.64 0 4 0 C4 0.99 4 1.98 4 3 C4.99 3.33 5.98 3.66 7 4 C6.67 4.99 6.34 5.98 6 7 C4.02 4.69 2.04 2.38 0 0 Z " fill="#F6CDC4" transform="translate(177,48)"/>
<path d="M0 0 C0.66 0.33 1.32 0.66 2 1 C1.01 2.485 1.01 2.485 0 4 C-0.66 4 -1.32 4 -2 4 C-2.33 4.99 -2.66 5.98 -3 7 C-3.99 6.67 -4.98 6.34 -6 6 C-6 5.34 -6 4.68 -6 4 C-4.36368108 2.95107762 -2.69514137 1.95093297 -1 1 C-0.67 0.67 -0.34 0.34 0 0 Z " fill="#F4F7F3" transform="translate(167,41)"/>
<path d="M0 0 C0.66 0 1.32 0 2 0 C2 1.65 2 3.3 2 5 C0.68 5.33 -0.64 5.66 -2 6 C-1.34 4.02 -0.68 2.04 0 0 Z " fill="#080808" transform="translate(245,182)"/>
<path d="M0 0 C2.6875 0.3125 2.6875 0.3125 5 1 C5 1.66 5 2.32 5 3 C2.36 3 -0.28 3 -3 3 C-1.8125 1.4375 -1.8125 1.4375 0 0 Z " fill="#131213" transform="translate(238,179)"/>
<path d="M0 0 C1.32 0 2.64 0 4 0 C3.34 1.65 2.68 3.3 2 5 C1.01 5 0.02 5 -1 5 C-1 2 -1 2 0 0 Z " fill="#2E2E2E" transform="translate(307,168)"/>
<path d="M0 0 C0.99 0 1.98 0 3 0 C3.33 1.65 3.66 3.3 4 5 C2.68 4.67 1.36 4.34 0 4 C0 2.68 0 1.36 0 0 Z " fill="#ECFEF8" transform="translate(132,162)"/>
<path d="M0 0 C1.98 0.495 1.98 0.495 4 1 C4 1.99 4 2.98 4 4 C2.35 3.67 0.7 3.34 -1 3 C-0.67 2.01 -0.34 1.02 0 0 Z " fill="#EBFEFA" transform="translate(220,162)"/>
<path d="M0 0 C2.31 0.66 4.62 1.32 7 2 C7 2.66 7 3.32 7 4 C6.01 4.33 5.02 4.66 4 5 C2.68 3.35 1.36 1.7 0 0 Z " fill="#C32E3A" transform="translate(166,150)"/>
<path d="M0 0 C2.02054804 1.64169528 4.02043058 3.30911778 6 5 C6 5.33 6 5.66 6 6 C4.35 6 2.7 6 1 6 C0.67 4.02 0.34 2.04 0 0 Z " fill="#F8D3CC" transform="translate(211,143)"/>
<path d="M0 0 C3.00765886 2.84936103 5.27845212 5.23511958 7 9 C5.82460004 8.07347299 4.65989423 7.13336613 3.5 6.1875 C2.52546875 5.40439453 2.52546875 5.40439453 1.53125 4.60546875 C0 3 0 3 0 0 Z " fill="#B7272C" transform="translate(212,141)"/>
<path d="M0 0 C0.99 0.33 1.98 0.66 3 1 C2.34 2.65 1.68 4.3 1 6 C0.01 5.67 -0.98 5.34 -2 5 C-2 3.68 -2 2.36 -2 1 C-1.34 0.67 -0.68 0.34 0 0 Z " fill="#E91E2F" transform="translate(204,126)"/>
<path d="M0 0 C0 0.99 0 1.98 0 3 C-2.31 3.66 -4.62 4.32 -7 5 C-7 4.34 -7 3.68 -7 3 C-2.61538462 0 -2.61538462 0 0 0 Z " fill="#F0FDF5" transform="translate(207,56)"/>
</svg>
